<svg width="200" height="200" fill="none" xmlns="http://www.w3.org/2000/svg"><g filter="url(#filter0_d)"><circle cx="100" cy="99" r="80" fill="url(#paint0_linear)"/></g><path d="M63.815 89.008V106h6.504c3.336 0 5.856-1.344 5.856-4.992 0-3.768-2.256-5.112-5.976-5.112h-4.368v-4.872h8.976v-2.016H63.815zm6.432 8.76c2.832 0 3.912 1.104 3.912 3.192 0 2.496-1.56 3.024-3.744 3.024h-4.584v-6.216h4.416zm10.107 5.688h-.048l.048-1.776v-8.112h-1.92V106h2.376l4.56-8.16.84-1.68h.048l-.048 1.632V106h1.92V93.568h-2.472l-4.488 8.208-.816 1.68zM94.88 93.328c-1.752 0-3.312.672-4.296 2.16l1.272.96c.696-.816 1.56-1.296 2.856-1.296 1.368 0 2.28.456 2.28 1.632 0 1.32-.96 1.896-2.232 1.896h-1.704v1.56h1.704c1.704 0 2.76.6 2.76 2.208 0 1.416-1.272 1.992-2.76 1.992-1.368 0-2.4-.504-3-1.416l-1.488.888c.96 1.656 2.664 2.328 4.56 2.328 2.232 0 4.632-1.128 4.632-3.768 0-1.488-.816-2.712-2.016-3.168.84-.432 1.488-1.416 1.488-2.544 0-1.968-1.608-3.432-4.056-3.432zm8.959.24h-1.92V106h1.92v-5.568h5.736V106h1.92V93.568h-1.92v5.016h-5.736v-5.016zm12.296 7.176h7.632v-3.288c0-2.784-2.4-4.128-4.752-4.128-2.4 0-4.824 1.344-4.824 4.128v4.656c0 2.76 2.424 4.128 4.824 4.128 1.8 0 3.648-.912 4.512-2.736l-1.68-.72c-.504 1.152-1.704 1.68-2.832 1.68-1.464 0-2.88-.696-2.88-2.208v-1.512zm5.808-1.608h-5.808v-1.728c-.024-1.512 1.272-2.328 2.88-2.328 1.416 0 2.928.816 2.928 2.28v1.776zM135.15 95.8c-1.224-1.968-2.712-2.472-4.464-2.472-2.376 0-4.8 1.368-4.8 4.152v4.608c0 2.784 2.424 4.152 4.8 4.152 1.92 0 3.936-.984 4.656-3.048l-1.536-.72c-.576 1.464-1.872 1.968-3.096 1.968-1.56 0-2.904-.84-2.904-2.304V97.48c0-1.512 1.44-2.232 2.88-2.232 1.104 0 2.16.168 2.952 1.44l1.512-.888z" fill="#fff"/><defs><filter id="filter0_d" x="0" y="0" width="200" height="200" filterUnits="userSpaceOnUse" color-interpolation-filters="sRGB"><feFlood flood-opacity="0" result="BackgroundImageFix"/><feColorMatrix in="SourceAlpha" values="0 0 0 0 0 0 0 0 0 0 0 0 0 0 0 0 0 0 127 0"/><feOffset dy="1"/><feGaussianBlur stdDeviation="10"/><feColorMatrix values="0 0 0 0 0 0 0 0 0 0 0 0 0 0 0 0 0 0 0.4 0"/><feBlend in2="BackgroundImageFix" result="effect1_dropShadow"/><feBlend in="SourceGraphic" in2="effect1_dropShadow" result="shape"/></filter><linearGradient id="paint0_linear" x1="51" y1="37" x2="180" y2="166.5" gradientUnits="userSpaceOnUse"><stop offset=".442" stop-color="#6940BF"/><stop offset="1" stop-color="#412973"/></linearGradient></defs></svg>