<svg width="160" height="176" fill="none" xmlns="http://www.w3.org/2000/svg"><g filter="url(#filter0_d)"><path d="M157 85.268c1.333.77 1.333 2.694 0 3.464L43 154.55c-1.333.77-3-.192-3-1.732V21.182c0-1.54 1.667-2.502 3-1.732l114 65.818z" fill="url(#paint0_linear)"/></g><path d="M58.92 80.008V97h5.76c3.24 0 6.456-1.512 6.456-5.088V85.12c0-3.6-3.215-5.112-6.456-5.112h-5.76zm2.017 14.976v-12.96h3.743c2.232 0 4.44.864 4.44 3.096v6.792c0 2.208-2.208 3.072-4.44 3.072h-3.744zm13.288-14.976V97h5.76c3.24 0 6.456-1.512 6.456-5.088V85.12c0-3.6-3.216-5.112-6.456-5.112h-5.76zm2.016 14.976v-12.96h3.744c2.232 0 4.44.864 4.44 3.096v6.792c0 2.208-2.208 3.072-4.44 3.072h-3.744zM91.546 83.8l4.92 10.968h1.704l4.896-10.992V97h2.016V80.008h-2.52l-5.256 11.856-5.256-11.856h-2.52V97h2.016V83.8z" fill="#fff"/><defs><filter id="filter0_d" x="20" y=".179" width="158" height="175.642" filterUnits="userSpaceOnUse" color-interpolation-filters="sRGB"><feFlood flood-opacity="0" result="BackgroundImageFix"/><feColorMatrix in="SourceAlpha" values="0 0 0 0 0 0 0 0 0 0 0 0 0 0 0 0 0 0 127 0"/><feOffset dy="1"/><feGaussianBlur stdDeviation="10"/><feColorMatrix values="0 0 0 0 0 0 0 0 0 0 0 0 0 0 0 0 0 0 0.4 0"/><feBlend in2="BackgroundImageFix" result="effect1_dropShadow"/><feBlend in="SourceGraphic" in2="effect1_dropShadow" result="shape"/></filter><linearGradient id="paint0_linear" x1="160" y1="87" x2="43.5" y2="87" gradientUnits="userSpaceOnUse"><stop stop-color="#DB355F"/><stop offset="1" stop-color="#FA6800"/></linearGradient></defs></svg>