<svg width="68" height="88" fill="none" xmlns="http://www.w3.org/2000/svg"><g filter="url(#filter0_d)"><path d="M4 5a5 5 0 0 1 5-5h40l7 7 8 8v60a5 5 0 0 1-5 5H9a5 5 0 0 1-5-5V5z" fill="#fff"/></g><path d="M31.699 64.448c0 .96-.15 1.797-.448 2.512a4.718 4.718 0 0 1-1.264 1.76c-.544.459-1.195.805-1.952 1.04a8.775 8.775 0 0 1-2.496.336c-.448 0-.944-.021-1.488-.064a8.238 8.238 0 0 1-1.456-.208V59.072a8.238 8.238 0 0 1 1.456-.208c.544-.043 1.04-.064 1.488-.064.906 0 1.738.117 2.496.352.757.224 1.408.57 1.952 1.04.544.459.965 1.045 1.264 1.76.298.704.448 1.536.448 2.496zm-6.032 4.288c1.472 0 2.57-.373 3.296-1.12.725-.757 1.088-1.813 1.088-3.168 0-1.355-.363-2.405-1.088-3.152-.726-.757-1.824-1.136-3.296-1.136-.438 0-.779.005-1.024.016-.235.01-.4.021-.496.032v8.48c.096.01.261.021.496.032.245.01.586.016 1.024.016zm7.886-4.288c0-.95.139-1.787.416-2.512.288-.725.672-1.328 1.152-1.808a4.808 4.808 0 0 1 1.696-1.104 5.802 5.802 0 0 1 2.064-.368c.715 0 1.387.123 2.016.368.64.245 1.2.613 1.68 1.104.48.48.859 1.083 1.136 1.808.288.725.432 1.563.432 2.512 0 .95-.144 1.787-.432 2.512-.277.725-.656 1.333-1.136 1.824-.48.48-1.04.843-1.68 1.088a5.502 5.502 0 0 1-2.016.368 5.802 5.802 0 0 1-2.064-.368 4.918 4.918 0 0 1-1.696-1.088c-.48-.49-.864-1.099-1.152-1.824-.277-.725-.416-1.563-.416-2.512zm1.632 0c0 .672.085 1.285.256 1.84.17.544.41 1.008.72 1.392.32.384.704.683 1.152.896.459.203.97.304 1.536.304.565 0 1.072-.101 1.52-.304a3.214 3.214 0 0 0 1.136-.896c.32-.384.565-.848.736-1.392.17-.555.256-1.168.256-1.84 0-.672-.085-1.28-.256-1.824a4.014 4.014 0 0 0-.736-1.408 3.058 3.058 0 0 0-1.136-.88 3.493 3.493 0 0 0-1.52-.32 3.6 3.6 0 0 0-1.536.32 3.2 3.2 0 0 0-1.152.88c-.31.384-.55.853-.72 1.408a6.077 6.077 0 0 0-.256 1.824zm16.037 5.792c-.779 0-1.488-.128-2.128-.384a4.526 4.526 0 0 1-1.648-1.12c-.459-.49-.816-1.093-1.072-1.808-.245-.725-.368-1.552-.368-2.48 0-.928.139-1.75.416-2.464.288-.725.672-1.333 1.152-1.824.48-.49 1.04-.864 1.68-1.12a5.463 5.463 0 0 1 2.048-.384c.459 0 .87.032 1.232.096.373.064.694.139.96.224a4.336 4.336 0 0 1 1.024.448l-.448 1.28a2.482 2.482 0 0 0-.416-.208 8.098 8.098 0 0 0-.624-.224 4.588 4.588 0 0 0-.752-.176 4.152 4.152 0 0 0-.816-.08 3.95 3.95 0 0 0-1.584.304 3.27 3.27 0 0 0-1.2.88c-.33.384-.586.853-.768 1.408a6.157 6.157 0 0 0-.256 1.84c0 .661.075 1.264.224 1.808.16.544.395 1.013.704 1.408.31.384.694.683 1.152.896.47.213 1.014.32 1.632.32.715 0 1.307-.075 1.776-.224.47-.15.822-.283 1.056-.4l.4 1.28a2.531 2.531 0 0 1-.4.208c-.192.075-.432.15-.72.224a9.099 9.099 0 0 1-2.256.272z" fill="#000"/><path d="M64 15L49 0v15h15zM14 27h40v1H14zm0 7h40v1H14zm0 7h30v1H14z" fill="#C4C4C4"/><defs><filter id="filter0_d" x="0" y="0" width="68" height="88" filterUnits="userSpaceOnUse" color-interpolation-filters="sRGB"><feFlood flood-opacity="0" result="BackgroundImageFix"/><feColorMatrix in="SourceAlpha" values="0 0 0 0 0 0 0 0 0 0 0 0 0 0 0 0 0 0 127 0"/><feOffset dy="4"/><feGaussianBlur stdDeviation="2"/><feColorMatrix values="0 0 0 0 0 0 0 0 0 0 0 0 0 0 0 0 0 0 0.25 0"/><feBlend in2="BackgroundImageFix" result="effect1_dropShadow"/><feBlend in="SourceGraphic" in2="effect1_dropShadow" result="shape"/></filter></defs></svg>