<svg width="160" height="198" fill="none" xmlns="http://www.w3.org/2000/svg"><g filter="url(#filter0_d)"><path d="M139.1 96.8L81.6 20.133a2 2 0 0 0-3.2 0L20.9 96.8a2 2 0 0 0 0 2.4l57.5 76.667a2 2 0 0 0 3.2 0L139.1 99.2a2.001 2.001 0 0 0 0-2.4z" fill="url(#paint0_linear)"/></g><path d="M59.17 93.024h8.88v-2.016H57.156V108H68.05v-2.016h-8.88v-5.472h8.184v-2.016H59.17v-5.472zM82.995 108h2.472l-5.472-6.96c2.904-.144 5.16-1.56 5.16-4.944-.072-3.624-2.544-5.088-5.808-5.088h-6.48V108h2.016v-6.936h2.616L82.994 108zm-8.112-8.808v-6.168h4.488c2.208 0 3.768.72 3.768 3.072 0 2.328-1.464 3.096-3.768 3.096h-4.488zM89.725 108h1.992v-6.12h4.512c3.792 0 5.712-2.688 5.712-5.424 0-2.712-1.92-5.448-5.736-5.448h-6.48V108zm1.992-8.136v-6.84h4.488c2.496 0 3.744 1.704 3.744 3.432 0 1.704-1.224 3.408-3.744 3.408h-4.488z" fill="#fff"/><defs><filter id="filter0_d" x=".5" y=".333" width="159" height="197.333" filterUnits="userSpaceOnUse" color-interpolation-filters="sRGB"><feFlood flood-opacity="0" result="BackgroundImageFix"/><feColorMatrix in="SourceAlpha" values="0 0 0 0 0 0 0 0 0 0 0 0 0 0 0 0 0 0 127 0"/><feOffset dy="1"/><feGaussianBlur stdDeviation="10"/><feColorMatrix values="0 0 0 0 0 0 0 0 0 0 0 0 0 0 0 0 0 0 0.4 0"/><feBlend in2="BackgroundImageFix" result="effect1_dropShadow"/><feBlend in="SourceGraphic" in2="effect1_dropShadow" result="shape"/></filter><linearGradient id="paint0_linear" x1="48.5" y1="60" x2="118.5" y2="143" gradientUnits="userSpaceOnUse"><stop stop-color="#FB0"/><stop offset=".453" stop-color="#FF7900"/></linearGradient></defs></svg>