<svg width="68" height="80" fill="none" xmlns="http://www.w3.org/2000/svg"><g filter="url(#filter0_d)"><path d="M4 5a5 5 0 0 1 5-5h40l7 7 8 8v60a5 5 0 0 1-5 5H9a5 5 0 0 1-5-5V5z" fill="#fff"/></g><path d="M41.785 64.544h1.552v5.184c-.128.043-.315.09-.56.144a14.758 14.758 0 0 1-1.856.288 9.989 9.989 0 0 1-1.136.064c-.779 0-1.488-.128-2.128-.384a4.526 4.526 0 0 1-1.648-1.12c-.459-.49-.816-1.093-1.072-1.808-.246-.715-.368-1.536-.368-2.464 0-.928.138-1.75.416-2.464.288-.725.672-1.333 1.152-1.824.48-.49 1.04-.864 1.68-1.12a5.63 5.63 0 0 1 2.08-.384 8.154 8.154 0 0 1 2.336.32c.277.085.501.17.672.256.181.085.304.15.368.192l-.496 1.296c-.31-.203-.72-.368-1.232-.496a5.97 5.97 0 0 0-1.568-.208c-.566 0-1.083.101-1.552.304a3.312 3.312 0 0 0-1.184.88c-.32.384-.571.853-.752 1.408-.182.544-.272 1.157-.272 1.84 0 .661.074 1.264.224 1.808.16.544.394 1.013.704 1.408.32.384.709.683 1.168.896.469.213 1.018.32 1.648.32.448 0 .826-.021 1.136-.064a5.82 5.82 0 0 0 .688-.144v-4.128zM53.175 70c-.182-.48-.352-.95-.512-1.408-.16-.47-.326-.944-.496-1.424h-5.024L46.135 70h-1.616a313.152 313.152 0 0 1 2.288-6.096c.362-.896.72-1.75 1.072-2.56.352-.821.72-1.632 1.104-2.432h1.424c.384.8.752 1.61 1.104 2.432.352.81.704 1.664 1.056 2.56.362.896.73 1.845 1.104 2.848.373.992.773 2.075 1.2 3.248h-1.696zm-1.456-4.112a120.53 120.53 0 0 0-1.024-2.688 42.312 42.312 0 0 0-1.04-2.512c-.374.8-.731 1.637-1.072 2.512-.331.864-.662 1.76-.992 2.688h4.128z" fill="#000"/><path d="M64 15L49 0v15h15zM14 27h40v1H14zm0 7h40v1H14zm0 7h30v1H14z" fill="#C4C4C4"/><defs><filter id="filter0_d" x="0" y="0" width="68" height="88" filterUnits="userSpaceOnUse" color-interpolation-filters="sRGB"><feFlood flood-opacity="0" result="BackgroundImageFix"/><feColorMatrix in="SourceAlpha" values="0 0 0 0 0 0 0 0 0 0 0 0 0 0 0 0 0 0 127 0"/><feOffset dy="4"/><feGaussianBlur stdDeviation="2"/><feColorMatrix values="0 0 0 0 0 0 0 0 0 0 0 0 0 0 0 0 0 0 0.25 0"/><feBlend in2="BackgroundImageFix" result="effect1_dropShadow"/><feBlend in="SourceGraphic" in2="effect1_dropShadow" result="shape"/></filter></defs></svg>