<svg width="288" height="350" fill="none" xmlns="http://www.w3.org/2000/svg"><g filter="url(#filter0_f)"><path d="M62 305h93.783c8.811 0 15.953-7.205 15.953-16.092v-54.816c0-8.887 7.143-16.092 15.953-16.092H283" stroke="#00E2E2" stroke-width="5"/></g><g filter="url(#filter1_d)"><path d="M62 305h93.783c8.811 0 15.953-7.205 15.953-16.092v-54.816c0-8.887 7.143-16.092 15.953-16.092H283" stroke="#00E2E2" stroke-width="5"/></g><g filter="url(#filter2_f)"><path d="M62 218h75.205c8.87 0 16.061-8.596 16.061-19.2v-6.6c0-10.604 7.192-19.2 16.062-19.2H247" stroke="#00E2E2" stroke-width="5"/></g><g filter="url(#filter3_d)"><path d="M62 218h75.205c8.87 0 16.061-8.596 16.061-19.2v-6.6c0-10.604 7.192-19.2 16.062-19.2H247" stroke="#00E2E2" stroke-width="5"/></g><g filter="url(#filter4_f)"><path d="M62 41h93.783c8.811 0 15.953 7.205 15.953 16.093v54.815c0 8.887 7.143 16.092 15.953 16.092H283" stroke="#00E2E2" stroke-width="5"/></g><g filter="url(#filter5_d)"><path d="M62 41h93.783c8.811 0 15.953 7.205 15.953 16.093v54.815c0 8.887 7.143 16.092 15.953 16.092H283" stroke="#00E2E2" stroke-width="5"/></g><g filter="url(#filter6_f)"><path d="M62 128h75.205c8.87 0 16.061 8.596 16.061 19.2v6.6c0 10.604 7.192 19.2 16.062 19.2H247" stroke="#00E2E2" stroke-width="5"/></g><g filter="url(#filter7_d)"><path d="M62 128h75.205c8.87 0 16.061 8.596 16.061 19.2v6.6c0 10.604 7.192 19.2 16.062 19.2H247" stroke="#00E2E2" stroke-width="5"/></g><g filter="url(#filter8_d)"><path d="M4 5a5 5 0 0 1 5-5h40l7 7 8 8v60a5 5 0 0 1-5 5H9a5 5 0 0 1-5-5V5z" fill="#fff"/></g><path d="M35.907 70c-.16-.32-.352-.672-.576-1.056-.224-.395-.47-.8-.736-1.216a32.246 32.246 0 0 0-.832-1.264 54.96 54.96 0 0 0-.832-1.2 54.96 54.96 0 0 0-.832 1.2c-.288.416-.565.837-.832 1.264-.256.416-.501.821-.736 1.216-.224.384-.416.736-.576 1.056h-1.712a32.363 32.363 0 0 1 1.664-2.864c.64-.97 1.317-1.968 2.032-2.992l-3.552-5.232h1.792l2.736 4.128 2.704-4.128h1.776l-3.488 5.168a109.26 109.26 0 0 1 2.048 3.024c.64.981 1.205 1.947 1.696 2.896h-1.744zm10.11-1.344V70h-6.672V58.912h1.552v9.744h5.12zm4.42.24c1.62 0 2.431-.555 2.431-1.664 0-.341-.074-.63-.224-.864a1.888 1.888 0 0 0-.576-.624 3.784 3.784 0 0 0-.848-.464 24.51 24.51 0 0 0-.992-.384 11.336 11.336 0 0 1-1.152-.464 4.39 4.39 0 0 1-.944-.624 2.847 2.847 0 0 1-.64-.864c-.149-.33-.224-.73-.224-1.2 0-.97.331-1.728.992-2.272.662-.544 1.574-.816 2.736-.816.672 0 1.28.075 1.824.224.555.139.96.293 1.216.464l-.496 1.264c-.224-.139-.56-.272-1.008-.4-.437-.139-.949-.208-1.536-.208-.298 0-.576.032-.832.096s-.48.16-.672.288a1.476 1.476 0 0 0-.464.496c-.106.192-.16.421-.16.688 0 .299.059.55.176.752.118.203.283.384.496.544.214.15.459.288.736.416.288.128.603.256.944.384.48.192.918.384 1.312.576a4.1 4.1 0 0 1 1.04.688c.299.267.528.587.688.96.16.363.24.805.24 1.328 0 .97-.357 1.717-1.072 2.24-.704.523-1.701.784-2.992.784-.437 0-.842-.032-1.216-.096a9.294 9.294 0 0 1-.976-.192 8.703 8.703 0 0 1-.752-.256 9.872 9.872 0 0 1-.48-.24l.464-1.28c.246.139.619.293 1.12.464.502.17 1.115.256 1.84.256z" fill="#000"/><path d="M64 15L49 0v15h15zM14 27h40v1H14zm0 7h40v1H14zm0 7h30v1H14z" fill="#C4C4C4"/><g filter="url(#filter9_d)"><path d="M4 95a5 5 0 0 1 5-5h40l7 7 8 8v60a5 5 0 0 1-5 5H9a5 5 0 0 1-5-5V95z" fill="#fff"/></g><path d="M31.699 154.448c0 .96-.15 1.797-.448 2.512a4.715 4.715 0 0 1-1.264 1.76c-.544.459-1.195.805-1.952 1.04a8.775 8.775 0 0 1-2.496.336c-.448 0-.944-.021-1.488-.064a8.21 8.21 0 0 1-1.456-.208v-10.752a8.21 8.21 0 0 1 1.456-.208c.544-.043 1.04-.064 1.488-.064.906 0 1.738.117 2.496.352a5.208 5.208 0 0 1 1.952 1.04 4.553 4.553 0 0 1 1.264 1.76c.298.704.448 1.536.448 2.496zm-6.032 4.288c1.472 0 2.57-.373 3.296-1.12.725-.757 1.088-1.813 1.088-3.168 0-1.355-.363-2.405-1.088-3.152-.726-.757-1.824-1.136-3.296-1.136-.438 0-.779.005-1.024.016a8.8 8.8 0 0 0-.496.032v8.48a8.8 8.8 0 0 0 .496.032c.245.011.586.016 1.024.016zm7.886-4.288c0-.949.139-1.787.416-2.512.288-.725.672-1.328 1.152-1.808a4.8 4.8 0 0 1 1.696-1.104 5.809 5.809 0 0 1 2.064-.368c.715 0 1.387.123 2.016.368.64.245 1.2.613 1.68 1.104.48.48.859 1.083 1.136 1.808.288.725.432 1.563.432 2.512 0 .949-.144 1.787-.432 2.512-.277.725-.656 1.333-1.136 1.824-.48.48-1.04.843-1.68 1.088a5.508 5.508 0 0 1-2.016.368 5.809 5.809 0 0 1-2.064-.368 4.913 4.913 0 0 1-1.696-1.088c-.48-.491-.864-1.099-1.152-1.824-.277-.725-.416-1.563-.416-2.512zm1.632 0c0 .672.085 1.285.256 1.84.17.544.41 1.008.72 1.392.32.384.704.683 1.152.896.459.203.97.304 1.536.304.565 0 1.072-.101 1.52-.304a3.21 3.21 0 0 0 1.136-.896c.32-.384.565-.848.736-1.392.17-.555.256-1.168.256-1.84 0-.672-.085-1.28-.256-1.824a4.011 4.011 0 0 0-.736-1.408 3.061 3.061 0 0 0-1.136-.88 3.497 3.497 0 0 0-1.52-.32c-.565 0-1.077.107-1.536.32a3.203 3.203 0 0 0-1.152.88c-.31.384-.55.853-.72 1.408a6.077 6.077 0 0 0-.256 1.824zm16.037 5.792c-.779 0-1.488-.128-2.128-.384a4.522 4.522 0 0 1-1.648-1.12c-.459-.491-.816-1.093-1.072-1.808-.245-.725-.368-1.552-.368-2.48 0-.928.139-1.749.416-2.464.288-.725.672-1.333 1.152-1.824a4.833 4.833 0 0 1 1.68-1.12 5.463 5.463 0 0 1 2.048-.384c.459 0 .87.032 1.232.096.373.064.694.139.96.224.278.085.502.171.672.256a3.6 3.6 0 0 1 .352.192l-.448 1.28a2.505 2.505 0 0 0-.416-.208 8.098 8.098 0 0 0-.624-.224 4.588 4.588 0 0 0-.752-.176 4.175 4.175 0 0 0-.816-.08 3.95 3.95 0 0 0-1.584.304 3.27 3.27 0 0 0-1.2.88c-.33.384-.586.853-.768 1.408a6.157 6.157 0 0 0-.256 1.84c0 .661.075 1.264.224 1.808a4.16 4.16 0 0 0 .704 1.408c.31.384.694.683 1.152.896.47.213 1.014.32 1.632.32.715 0 1.307-.075 1.776-.224.47-.149.822-.283 1.056-.4l.4 1.28a2.531 2.531 0 0 1-.4.208 6.596 6.596 0 0 1-.72.224 9.147 9.147 0 0 1-2.256.272z" fill="#000"/><path d="M64 105L49 90v15h15zm-50 12h40v1H14zm0 7h40v1H14zm0 7h30v1H14z" fill="#C4C4C4"/><g filter="url(#filter10_d)"><path d="M4 185a5 5 0 0 1 5-5h40l7 7 8 8v60a5 5 0 0 1-5 5H9a5 5 0 0 1-5-5v-70z" fill="#fff"/></g><path d="M30.704 250c-.16-.32-.352-.672-.576-1.056-.224-.395-.47-.8-.736-1.216a32.023 32.023 0 0 0-.832-1.264 53.876 53.876 0 0 0-.832-1.2c-.267.373-.544.773-.832 1.2-.288.416-.566.837-.832 1.264-.256.416-.502.821-.736 1.216-.224.384-.416.736-.576 1.056H23.04a32.338 32.338 0 0 1 1.664-2.864c.64-.971 1.317-1.968 2.032-2.992l-3.552-5.232h1.792l2.736 4.128 2.704-4.128h1.776l-3.488 5.168a110.17 110.17 0 0 1 2.048 3.024c.64.981 1.205 1.947 1.696 2.896h-1.744zm8.414-1.536a30.9 30.9 0 0 0-.432-.976c-.171-.395-.358-.821-.56-1.28a39.754 39.754 0 0 0-.656-1.408 99.878 99.878 0 0 0-.64-1.376 24.043 24.043 0 0 0-.576-1.168c-.171-.341-.31-.603-.416-.784a97.719 97.719 0 0 0-.288 4.096 290.703 290.703 0 0 0-.192 4.432h-1.52a244.999 244.999 0 0 1 .32-5.776c.074-.949.149-1.872.224-2.768a105.1 105.1 0 0 1 .272-2.544h1.36c.288.469.597 1.024.928 1.664.33.64.661 1.312.992 2.016.33.693.65 1.392.96 2.096l.848 1.904c.256-.576.538-1.211.848-1.904.309-.704.629-1.403.96-2.096.33-.704.661-1.376.992-2.016.33-.64.64-1.195.928-1.664h1.36c.362 3.573.634 7.269.816 11.088h-1.52a288.151 288.151 0 0 0-.192-4.432 97.38 97.38 0 0 0-.288-4.096c-.107.181-.251.443-.432.784-.171.341-.358.731-.56 1.168l-.656 1.376a74.5 74.5 0 0 0-.64 1.408c-.203.459-.395.885-.576 1.28-.171.395-.31.72-.416.976h-1.248zm15.633.192V250H48.08v-11.088h1.552v9.744h5.12z" fill="#000"/><path d="M64 195l-15-15v15h15zm-50 12h40v1H14zm0 7h40v1H14zm0 7h30v1H14z" fill="#C4C4C4"/><g filter="url(#filter11_d)"><path d="M4 275a5 5 0 0 1 5-5h40l7 7 8 8v60a5 5 0 0 1-5 5H9a5 5 0 0 1-5-5v-70z" fill="#fff"/></g><path d="M41.785 334.544h1.552v5.184a5.574 5.574 0 0 1-.56.144 14.758 14.758 0 0 1-1.856.288 9.92 9.92 0 0 1-1.136.064c-.779 0-1.488-.128-2.128-.384a4.522 4.522 0 0 1-1.648-1.12c-.459-.491-.816-1.093-1.072-1.808-.246-.715-.368-1.536-.368-2.464 0-.928.138-1.749.416-2.464.288-.725.672-1.333 1.152-1.824a4.833 4.833 0 0 1 1.68-1.12 5.63 5.63 0 0 1 2.08-.384 8.154 8.154 0 0 1 2.336.32c.277.085.501.171.672.256a3.2 3.2 0 0 1 .368.192l-.496 1.296c-.31-.203-.72-.368-1.232-.496a5.958 5.958 0 0 0-1.568-.208c-.566 0-1.083.101-1.552.304a3.316 3.316 0 0 0-1.184.88 4.22 4.22 0 0 0-.752 1.408c-.182.544-.272 1.157-.272 1.84 0 .661.074 1.264.224 1.808a4.16 4.16 0 0 0 .704 1.408c.32.384.709.683 1.168.896.469.213 1.018.32 1.648.32.448 0 .826-.021 1.136-.064a5.8 5.8 0 0 0 .688-.144v-4.128zM53.175 340a55.42 55.42 0 0 1-.512-1.408c-.16-.469-.326-.944-.496-1.424h-5.024L46.135 340h-1.616a315.73 315.73 0 0 1 2.288-6.096c.362-.896.72-1.749 1.072-2.56.352-.821.72-1.632 1.104-2.432h1.424a78.835 78.835 0 0 1 2.16 4.992c.362.896.73 1.845 1.104 2.848.373.992.773 2.075 1.2 3.248h-1.696zm-1.456-4.112a120.53 120.53 0 0 0-1.024-2.688 42.228 42.228 0 0 0-1.04-2.512c-.374.8-.731 1.637-1.072 2.512-.331.864-.662 1.76-.992 2.688h4.128z" fill="#000"/><path d="M64 285l-15-15v15h15zm-50 12h40v1H14zm0 7h40v1H14zm0 7h30v1H14z" fill="#C4C4C4"/><defs><filter id="filter0_f" x="57" y="210.5" width="231" height="102" filterUnits="userSpaceOnUse" color-interpolation-filters="sRGB"><feFlood flood-opacity="0" result="BackgroundImageFix"/><feBlend in="SourceGraphic" in2="BackgroundImageFix" result="shape"/><feGaussianBlur stdDeviation="2.5" result="effect1_foregroundBlur"/></filter><filter id="filter1_d" x="58" y="215.5" width="229" height="100" filterUnits="userSpaceOnUse" color-interpolation-filters="sRGB"><feFlood flood-opacity="0" result="BackgroundImageFix"/><feColorMatrix in="SourceAlpha" values="0 0 0 0 0 0 0 0 0 0 0 0 0 0 0 0 0 0 127 0"/><feOffset dy="4"/><feGaussianBlur stdDeviation="2"/><feColorMatrix values="0 0 0 0 0 0 0 0 0 0 0 0 0 0 0 0 0 0 0.25 0"/><feBlend in2="BackgroundImageFix" result="effect1_dropShadow"/><feBlend in="SourceGraphic" in2="effect1_dropShadow" result="shape"/></filter><filter id="filter2_f" x="57" y="165.5" width="195" height="60" filterUnits="userSpaceOnUse" color-interpolation-filters="sRGB"><feFlood flood-opacity="0" result="BackgroundImageFix"/><feBlend in="SourceGraphic" in2="BackgroundImageFix" result="shape"/><feGaussianBlur stdDeviation="2.5" result="effect1_foregroundBlur"/></filter><filter id="filter3_d" x="58" y="170.5" width="193" height="58" filterUnits="userSpaceOnUse" color-interpolation-filters="sRGB"><feFlood flood-opacity="0" result="BackgroundImageFix"/><feColorMatrix in="SourceAlpha" values="0 0 0 0 0 0 0 0 0 0 0 0 0 0 0 0 0 0 127 0"/><feOffset dy="4"/><feGaussianBlur stdDeviation="2"/><feColorMatrix values="0 0 0 0 0 0 0 0 0 0 0 0 0 0 0 0 0 0 0.25 0"/><feBlend in2="BackgroundImageFix" result="effect1_dropShadow"/><feBlend in="SourceGraphic" in2="effect1_dropShadow" result="shape"/></filter><filter id="filter4_f" x="57" y="33.5" width="231" height="102" filterUnits="userSpaceOnUse" color-interpolation-filters="sRGB"><feFlood flood-opacity="0" result="BackgroundImageFix"/><feBlend in="SourceGraphic" in2="BackgroundImageFix" result="shape"/><feGaussianBlur stdDeviation="2.5" result="effect1_foregroundBlur"/></filter><filter id="filter5_d" x="58" y="38.5" width="229" height="100" filterUnits="userSpaceOnUse" color-interpolation-filters="sRGB"><feFlood flood-opacity="0" result="BackgroundImageFix"/><feColorMatrix in="SourceAlpha" values="0 0 0 0 0 0 0 0 0 0 0 0 0 0 0 0 0 0 127 0"/><feOffset dy="4"/><feGaussianBlur stdDeviation="2"/><feColorMatrix values="0 0 0 0 0 0 0 0 0 0 0 0 0 0 0 0 0 0 0.25 0"/><feBlend in2="BackgroundImageFix" result="effect1_dropShadow"/><feBlend in="SourceGraphic" in2="effect1_dropShadow" result="shape"/></filter><filter id="filter6_f" x="57" y="120.5" width="195" height="60" filterUnits="userSpaceOnUse" color-interpolation-filters="sRGB"><feFlood flood-opacity="0" result="BackgroundImageFix"/><feBlend in="SourceGraphic" in2="BackgroundImageFix" result="shape"/><feGaussianBlur stdDeviation="2.5" result="effect1_foregroundBlur"/></filter><filter id="filter7_d" x="58" y="125.5" width="193" height="58" filterUnits="userSpaceOnUse" color-interpolation-filters="sRGB"><feFlood flood-opacity="0" result="BackgroundImageFix"/><feColorMatrix in="SourceAlpha" values="0 0 0 0 0 0 0 0 0 0 0 0 0 0 0 0 0 0 127 0"/><feOffset dy="4"/><feGaussianBlur stdDeviation="2"/><feColorMatrix values="0 0 0 0 0 0 0 0 0 0 0 0 0 0 0 0 0 0 0.25 0"/><feBlend in2="BackgroundImageFix" result="effect1_dropShadow"/><feBlend in="SourceGraphic" in2="effect1_dropShadow" result="shape"/></filter><filter id="filter8_d" x="0" y="0" width="68" height="88" filterUnits="userSpaceOnUse" color-interpolation-filters="sRGB"><feFlood flood-opacity="0" result="BackgroundImageFix"/><feColorMatrix in="SourceAlpha" values="0 0 0 0 0 0 0 0 0 0 0 0 0 0 0 0 0 0 127 0"/><feOffset dy="4"/><feGaussianBlur stdDeviation="2"/><feColorMatrix values="0 0 0 0 0 0 0 0 0 0 0 0 0 0 0 0 0 0 0.25 0"/><feBlend in2="BackgroundImageFix" result="effect1_dropShadow"/><feBlend in="SourceGraphic" in2="effect1_dropShadow" result="shape"/></filter><filter id="filter9_d" x="0" y="90" width="68" height="88" filterUnits="userSpaceOnUse" color-interpolation-filters="sRGB"><feFlood flood-opacity="0" result="BackgroundImageFix"/><feColorMatrix in="SourceAlpha" values="0 0 0 0 0 0 0 0 0 0 0 0 0 0 0 0 0 0 127 0"/><feOffset dy="4"/><feGaussianBlur stdDeviation="2"/><feColorMatrix values="0 0 0 0 0 0 0 0 0 0 0 0 0 0 0 0 0 0 0.25 0"/><feBlend in2="BackgroundImageFix" result="effect1_dropShadow"/><feBlend in="SourceGraphic" in2="effect1_dropShadow" result="shape"/></filter><filter id="filter10_d" x="0" y="180" width="68" height="88" filterUnits="userSpaceOnUse" color-interpolation-filters="sRGB"><feFlood flood-opacity="0" result="BackgroundImageFix"/><feColorMatrix in="SourceAlpha" values="0 0 0 0 0 0 0 0 0 0 0 0 0 0 0 0 0 0 127 0"/><feOffset dy="4"/><feGaussianBlur stdDeviation="2"/><feColorMatrix values="0 0 0 0 0 0 0 0 0 0 0 0 0 0 0 0 0 0 0.25 0"/><feBlend in2="BackgroundImageFix" result="effect1_dropShadow"/><feBlend in="SourceGraphic" in2="effect1_dropShadow" result="shape"/></filter><filter id="filter11_d" x="0" y="270" width="68" height="88" filterUnits="userSpaceOnUse" color-interpolation-filters="sRGB"><feFlood flood-opacity="0" result="BackgroundImageFix"/><feColorMatrix in="SourceAlpha" values="0 0 0 0 0 0 0 0 0 0 0 0 0 0 0 0 0 0 127 0"/><feOffset dy="4"/><feGaussianBlur stdDeviation="2"/><feColorMatrix values="0 0 0 0 0 0 0 0 0 0 0 0 0 0 0 0 0 0 0.25 0"/><feBlend in2="BackgroundImageFix" result="effect1_dropShadow"/><feBlend in="SourceGraphic" in2="effect1_dropShadow" result="shape"/></filter></defs></svg>