<svg width="160" height="160" fill="none" xmlns="http://www.w3.org/2000/svg"><g filter="url(#filter0_d)"><path d="M78.35 2.407a2 2 0 0 1 3.3 0l26.162 38.173a2 2 0 0 0 1.084.788l44.389 13.085a2 2 0 0 1 1.02 3.139l-28.221 36.677c-.28.365-.426.815-.414 1.275l1.273 46.26a2.001 2.001 0 0 1-2.67 1.94L80.67 128.238a2.002 2.002 0 0 0-1.34 0l-43.603 15.506a2 2 0 0 1-2.67-1.94l1.273-46.26a2 2 0 0 0-.414-1.275L5.695 57.591a2 2 0 0 1 1.02-3.138l44.39-13.085a2 2 0 0 0 1.083-.788L78.35 2.407z" fill="url(#paint0_linear)"/></g><path d="M81.507 74.472c0-3-2.256-4.464-4.992-4.464h-6.528V87h6.504c3.264 0 5.736-1.272 5.808-4.872 0-1.872-.576-3.384-2.208-4.224 1.008-.84 1.416-2.088 1.416-3.432zm-9.504 2.52v-4.968h4.512c1.656 0 3.024.6 3.024 2.448 0 1.848-1.296 2.52-3.024 2.52h-4.512zm0 7.992v-5.976h4.512c2.304-.024 3.768.768 3.768 3.096 0 2.304-1.584 2.928-3.768 2.88h-4.512zm17-14.976H87.01V87h1.992V70.008z" fill="#fff"/><defs><filter id="filter0_d" x="1.279" y="1.538" width="157.442" height="150.323" filterUnits="userSpaceOnUse" color-interpolation-filters="sRGB"><feFlood flood-opacity="0" result="BackgroundImageFix"/><feColorMatrix in="SourceAlpha" values="0 0 0 0 0 0 0 0 0 0 0 0 0 0 0 0 0 0 127 0"/><feOffset dy="4"/><feGaussianBlur stdDeviation="2"/><feColorMatrix values="0 0 0 0 0 0 0 0 0 0 0 0 0 0 0 0 0 0 0.25 0"/><feBlend in2="BackgroundImageFix" result="effect1_dropShadow"/><feBlend in="SourceGraphic" in2="effect1_dropShadow" result="shape"/></filter><linearGradient id="paint0_linear" x1="27.5" y1="12.5" x2="135" y2="160" gradientUnits="userSpaceOnUse"><stop offset=".18" stop-color="#00FFB4"/><stop offset=".985" stop-color="#0C7584"/></linearGradient></defs></svg>