<svg width="68" height="88" fill="none" xmlns="http://www.w3.org/2000/svg"><g filter="url(#filter0_d)"><path d="M4 5a5 5 0 0 1 5-5h40l7 7 8 8v60a5 5 0 0 1-5 5H9a5 5 0 0 1-5-5V5z" fill="#fff"/></g><path d="M35.907 70c-.16-.32-.352-.672-.576-1.056-.224-.395-.47-.8-.736-1.216a32.246 32.246 0 0 0-.832-1.264 54.96 54.96 0 0 0-.832-1.2 54.96 54.96 0 0 0-.832 1.2c-.288.416-.565.837-.832 1.264-.256.416-.501.821-.736 1.216-.224.384-.416.736-.576 1.056h-1.712a32.363 32.363 0 0 1 1.664-2.864c.64-.97 1.317-1.968 2.032-2.992l-3.552-5.232h1.792l2.736 4.128 2.704-4.128h1.776l-3.488 5.168a109.26 109.26 0 0 1 2.048 3.024c.64.981 1.205 1.947 1.696 2.896h-1.744zm10.11-1.344V70h-6.672V58.912h1.552v9.744h5.12zm4.42.24c1.62 0 2.431-.555 2.431-1.664 0-.341-.074-.63-.224-.864a1.888 1.888 0 0 0-.576-.624 3.784 3.784 0 0 0-.848-.464 24.51 24.51 0 0 0-.992-.384 11.336 11.336 0 0 1-1.152-.464 4.39 4.39 0 0 1-.944-.624 2.847 2.847 0 0 1-.64-.864c-.149-.33-.224-.73-.224-1.2 0-.97.331-1.728.992-2.272.662-.544 1.574-.816 2.736-.816.672 0 1.28.075 1.824.224.555.139.96.293 1.216.464l-.496 1.264c-.224-.139-.56-.272-1.008-.4-.437-.139-.949-.208-1.536-.208-.298 0-.576.032-.832.096s-.48.16-.672.288a1.476 1.476 0 0 0-.464.496c-.106.192-.16.421-.16.688 0 .299.059.55.176.752.118.203.283.384.496.544.214.15.459.288.736.416.288.128.603.256.944.384.48.192.918.384 1.312.576a4.1 4.1 0 0 1 1.04.688c.299.267.528.587.688.96.16.363.24.805.24 1.328 0 .97-.357 1.717-1.072 2.24-.704.523-1.701.784-2.992.784-.437 0-.842-.032-1.216-.096a9.294 9.294 0 0 1-.976-.192 8.703 8.703 0 0 1-.752-.256 9.872 9.872 0 0 1-.48-.24l.464-1.28c.246.139.619.293 1.12.464.502.17 1.115.256 1.84.256z" fill="#000"/><path d="M64 15L49 0v15h15zM14 27h40v1H14zm0 7h40v1H14zm0 7h30v1H14z" fill="#C4C4C4"/><defs><filter id="filter0_d" x="0" y="0" width="68" height="88" filterUnits="userSpaceOnUse" color-interpolation-filters="sRGB"><feFlood flood-opacity="0" result="BackgroundImageFix"/><feColorMatrix in="SourceAlpha" values="0 0 0 0 0 0 0 0 0 0 0 0 0 0 0 0 0 0 127 0"/><feOffset dy="4"/><feGaussianBlur stdDeviation="2"/><feColorMatrix values="0 0 0 0 0 0 0 0 0 0 0 0 0 0 0 0 0 0 0.25 0"/><feBlend in2="BackgroundImageFix" result="effect1_dropShadow"/><feBlend in="SourceGraphic" in2="effect1_dropShadow" result="shape"/></filter></defs></svg>