<svg width="68" height="80" fill="none" xmlns="http://www.w3.org/2000/svg"><g filter="url(#filter0_d)"><path d="M4 5a5 5 0 0 1 5-5h40l7 7 8 8v60a5 5 0 0 1-5 5H9a5 5 0 0 1-5-5V5z" fill="#fff"/></g><path d="M30.704 70c-.16-.32-.352-.672-.576-1.056-.224-.395-.47-.8-.736-1.216a32.246 32.246 0 0 0-.832-1.264 55.311 55.311 0 0 0-.832-1.2 54.96 54.96 0 0 0-.832 1.2c-.288.416-.566.837-.832 1.264-.256.416-.502.821-.736 1.216-.224.384-.416.736-.576 1.056H23.04a32.338 32.338 0 0 1 1.664-2.864c.64-.97 1.317-1.968 2.032-2.992l-3.552-5.232h1.792l2.736 4.128 2.704-4.128h1.776l-3.488 5.168a109.26 109.26 0 0 1 2.048 3.024c.64.981 1.205 1.947 1.696 2.896h-1.744zm8.414-1.536a32.884 32.884 0 0 0-.432-.976c-.171-.395-.358-.821-.56-1.28a40.004 40.004 0 0 0-.656-1.408c-.224-.49-.438-.95-.64-1.376a24.043 24.043 0 0 0-.576-1.168c-.171-.341-.31-.603-.416-.784a97.682 97.682 0 0 0-.288 4.096A290.703 290.703 0 0 0 35.358 70h-1.52a244.999 244.999 0 0 1 .32-5.776c.074-.95.149-1.872.224-2.768a105.1 105.1 0 0 1 .272-2.544h1.36c.288.47.597 1.024.928 1.664.33.64.661 1.312.992 2.016.33.693.65 1.392.96 2.096l.848 1.904.848-1.904c.309-.704.629-1.403.96-2.096.33-.704.661-1.376.992-2.016.33-.64.64-1.195.928-1.664h1.36c.362 3.573.634 7.27.816 11.088h-1.52c-.054-1.493-.118-2.97-.192-4.432a97.345 97.345 0 0 0-.288-4.096c-.107.181-.251.443-.432.784-.171.341-.358.73-.56 1.168l-.656 1.376c-.224.48-.438.95-.64 1.408-.203.459-.395.885-.576 1.28-.171.395-.31.72-.416.976h-1.248zm15.633.192V70H48.08V58.912h1.552v9.744h5.12z" fill="#000"/><path d="M64 15L49 0v15h15zM14 27h40v1H14zm0 7h40v1H14zm0 7h30v1H14z" fill="#C4C4C4"/><defs><filter id="filter0_d" x="0" y="0" width="68" height="88" filterUnits="userSpaceOnUse" color-interpolation-filters="sRGB"><feFlood flood-opacity="0" result="BackgroundImageFix"/><feColorMatrix in="SourceAlpha" values="0 0 0 0 0 0 0 0 0 0 0 0 0 0 0 0 0 0 127 0"/><feOffset dy="4"/><feGaussianBlur stdDeviation="2"/><feColorMatrix values="0 0 0 0 0 0 0 0 0 0 0 0 0 0 0 0 0 0 0.25 0"/><feBlend in2="BackgroundImageFix" result="effect1_dropShadow"/><feBlend in="SourceGraphic" in2="effect1_dropShadow" result="shape"/></filter></defs></svg>