<svg width="200" height="200" viewBox="0 0 200 200" fill="none" xmlns="http://www.w3.org/2000/svg">
<g filter="url(#filter0_d)">
<circle cx="100" cy="99" r="80" fill="url(#paint0_linear)"/>
</g>
<path d="M63.8151 89.008V106H70.3191C73.6551 106 76.1751 104.656 76.1751 101.008C76.1751 97.24 73.9191 95.896 70.1991 95.896H65.8311V91.024H74.8071V89.008H63.8151ZM70.2471 97.768C73.0791 97.768 74.1591 98.872 74.1591 100.96C74.1591 103.456 72.5991 103.984 70.4151 103.984H65.8311V97.768H70.2471ZM80.3544 103.456H80.3064L80.3544 101.68V93.568H78.4344V106H80.8104L85.3704 97.84L86.2104 96.16H86.2584L86.2104 97.792V106H88.1304V93.568H85.6584L81.1704 101.776L80.3544 103.456ZM94.8799 93.328C93.1279 93.328 91.5679 94 90.5839 95.488L91.8559 96.448C92.5519 95.632 93.4159 95.152 94.7119 95.152C96.0799 95.152 96.9919 95.608 96.9919 96.784C96.9919 98.104 96.0319 98.68 94.7599 98.68H93.0559V100.24H94.7599C96.4639 100.24 97.5199 100.84 97.5199 102.448C97.5199 103.864 96.2479 104.44 94.7599 104.44C93.3919 104.44 92.3599 103.936 91.7599 103.024L90.2719 103.912C91.2319 105.568 92.9359 106.24 94.8319 106.24C97.0639 106.24 99.4639 105.112 99.4639 102.472C99.4639 100.984 98.6479 99.76 97.4479 99.304C98.2879 98.872 98.9359 97.888 98.9359 96.76C98.9359 94.792 97.3279 93.328 94.8799 93.328ZM103.839 93.568H101.919V106H103.839V100.432H109.575V106H111.495V93.568H109.575V98.584H103.839V93.568ZM116.135 100.744H123.767V97.456C123.767 94.672 121.367 93.328 119.015 93.328C116.615 93.328 114.191 94.672 114.191 97.456V102.112C114.191 104.872 116.615 106.24 119.015 106.24C120.815 106.24 122.663 105.328 123.527 103.504L121.847 102.784C121.343 103.936 120.143 104.464 119.015 104.464C117.551 104.464 116.135 103.768 116.135 102.256V100.744ZM121.943 99.136H116.135V97.408C116.111 95.896 117.407 95.08 119.015 95.08C120.431 95.08 121.943 95.896 121.943 97.36V99.136ZM135.15 95.8C133.926 93.832 132.438 93.328 130.686 93.328C128.31 93.328 125.886 94.696 125.886 97.48V102.088C125.886 104.872 128.31 106.24 130.686 106.24C132.606 106.24 134.622 105.256 135.342 103.192L133.806 102.472C133.23 103.936 131.934 104.44 130.71 104.44C129.15 104.44 127.806 103.6 127.806 102.136V97.48C127.806 95.968 129.246 95.248 130.686 95.248C131.79 95.248 132.846 95.416 133.638 96.688L135.15 95.8Z" fill="white"/>
<defs>
<filter id="filter0_d" x="0" y="0" width="200" height="200" filterUnits="userSpaceOnUse" color-interpolation-filters="sRGB">
<feFlood flood-opacity="0" result="BackgroundImageFix"/>
<feColorMatrix in="SourceAlpha" type="matrix" values="0 0 0 0 0 0 0 0 0 0 0 0 0 0 0 0 0 0 127 0"/>
<feOffset dy="1"/>
<feGaussianBlur stdDeviation="10"/>
<feColorMatrix type="matrix" values="0 0 0 0 0 0 0 0 0 0 0 0 0 0 0 0 0 0 0.4 0"/>
<feBlend mode="normal" in2="BackgroundImageFix" result="effect1_dropShadow"/>
<feBlend mode="normal" in="SourceGraphic" in2="effect1_dropShadow" result="shape"/>
</filter>
<linearGradient id="paint0_linear" x1="51" y1="37" x2="180" y2="166.5" gradientUnits="userSpaceOnUse">
<stop offset="0.442198" stop-color="#6940BF"/>
<stop offset="1" stop-color="#412973"/>
</linearGradient>
</defs>
</svg>
