<svg width="68" height="88" viewBox="0 0 68 88" fill="none" xmlns="http://www.w3.org/2000/svg">
<g filter="url(#filter0_d)">
<path d="M4 5C4 2.23858 6.23858 0 9 0H49L56 7L64 15V75C64 77.7614 61.7614 80 59 80H9C6.23858 80 4 77.7614 4 75V5Z" fill="white"/>
</g>
<path d="M31.6988 64.448C31.6988 65.408 31.5494 66.2453 31.2508 66.96C30.9521 67.664 30.5308 68.2507 29.9868 68.72C29.4428 69.1787 28.7921 69.5253 28.0348 69.76C27.2774 69.984 26.4454 70.096 25.5388 70.096C25.0908 70.096 24.5948 70.0747 24.0508 70.032C23.5174 70 23.0321 69.9307 22.5948 69.824V59.072C23.0321 58.9653 23.5174 58.896 24.0508 58.864C24.5948 58.8213 25.0908 58.8 25.5388 58.8C26.4454 58.8 27.2774 58.9173 28.0348 59.152C28.7921 59.376 29.4428 59.7227 29.9868 60.192C30.5308 60.6507 30.9521 61.2373 31.2508 61.952C31.5494 62.656 31.6988 63.488 31.6988 64.448ZM25.6668 68.736C27.1388 68.736 28.2374 68.3627 28.9628 67.616C29.6881 66.8587 30.0508 65.8027 30.0508 64.448C30.0508 63.0933 29.6881 62.0427 28.9628 61.296C28.2374 60.5387 27.1388 60.16 25.6668 60.16C25.2294 60.16 24.8881 60.1653 24.6428 60.176C24.4081 60.1867 24.2428 60.1973 24.1468 60.208V68.688C24.2428 68.6987 24.4081 68.7093 24.6428 68.72C24.8881 68.7307 25.2294 68.736 25.6668 68.736ZM33.553 64.448C33.553 63.4987 33.6917 62.6613 33.969 61.936C34.257 61.2107 34.641 60.608 35.121 60.128C35.6117 59.6373 36.177 59.2693 36.817 59.024C37.4677 58.7787 38.1557 58.656 38.881 58.656C39.5957 58.656 40.2677 58.7787 40.897 59.024C41.537 59.2693 42.097 59.6373 42.577 60.128C43.057 60.608 43.4357 61.2107 43.713 61.936C44.001 62.6613 44.145 63.4987 44.145 64.448C44.145 65.3973 44.001 66.2347 43.713 66.96C43.4357 67.6853 43.057 68.2933 42.577 68.784C42.097 69.264 41.537 69.6267 40.897 69.872C40.2677 70.1173 39.5957 70.24 38.881 70.24C38.1557 70.24 37.4677 70.1173 36.817 69.872C36.177 69.6267 35.6117 69.264 35.121 68.784C34.641 68.2933 34.257 67.6853 33.969 66.96C33.6917 66.2347 33.553 65.3973 33.553 64.448ZM35.185 64.448C35.185 65.12 35.2703 65.7333 35.441 66.288C35.6117 66.832 35.8517 67.296 36.161 67.68C36.481 68.064 36.865 68.3627 37.313 68.576C37.7717 68.7787 38.2837 68.88 38.849 68.88C39.4143 68.88 39.921 68.7787 40.369 68.576C40.817 68.3627 41.1957 68.064 41.505 67.68C41.825 67.296 42.0703 66.832 42.241 66.288C42.4117 65.7333 42.497 65.12 42.497 64.448C42.497 63.776 42.4117 63.168 42.241 62.624C42.0703 62.0693 41.825 61.6 41.505 61.216C41.1957 60.832 40.817 60.5387 40.369 60.336C39.921 60.1227 39.4143 60.016 38.849 60.016C38.2837 60.016 37.7717 60.1227 37.313 60.336C36.865 60.5387 36.481 60.832 36.161 61.216C35.8517 61.6 35.6117 62.0693 35.441 62.624C35.2703 63.168 35.185 63.776 35.185 64.448ZM51.2221 70.24C50.4435 70.24 49.7341 70.112 49.0941 69.856C48.4541 69.6 47.9048 69.2267 47.4461 68.736C46.9875 68.2453 46.6301 67.6427 46.3741 66.928C46.1288 66.2027 46.0061 65.376 46.0061 64.448C46.0061 63.52 46.1448 62.6987 46.4221 61.984C46.7101 61.2587 47.0941 60.6507 47.5741 60.16C48.0541 59.6693 48.6141 59.296 49.2541 59.04C49.8941 58.784 50.5768 58.656 51.3021 58.656C51.7608 58.656 52.1715 58.688 52.5341 58.752C52.9075 58.816 53.2275 58.8907 53.4941 58.976C53.7715 59.0613 53.9955 59.1467 54.1661 59.232C54.3368 59.3173 54.4541 59.3813 54.5181 59.424L54.0701 60.704C53.9741 60.64 53.8355 60.5707 53.6541 60.496C53.4728 60.4213 53.2648 60.3467 53.0301 60.272C52.8061 60.1973 52.5555 60.1387 52.2781 60.096C52.0115 60.0427 51.7395 60.016 51.4621 60.016C50.8755 60.016 50.3475 60.1173 49.8781 60.32C49.4088 60.5227 49.0088 60.816 48.6781 61.2C48.3475 61.584 48.0915 62.0533 47.9101 62.608C47.7395 63.152 47.6541 63.7653 47.6541 64.448C47.6541 65.1093 47.7288 65.712 47.8781 66.256C48.0381 66.8 48.2728 67.2693 48.5821 67.664C48.8915 68.048 49.2755 68.3467 49.7341 68.56C50.2035 68.7733 50.7475 68.88 51.3661 68.88C52.0808 68.88 52.6728 68.8053 53.1421 68.656C53.6115 68.5067 53.9635 68.3733 54.1981 68.256L54.5981 69.536C54.5235 69.5893 54.3901 69.6587 54.1981 69.744C54.0061 69.8187 53.7661 69.8933 53.4781 69.968C53.1901 70.0427 52.8541 70.1067 52.4701 70.16C52.0861 70.2133 51.6701 70.24 51.2221 70.24Z" fill="black"/>
<path d="M64 15L49 0V15H64Z" fill="#C4C4C4"/>
<rect x="14" y="27" width="40" height="1" fill="#C4C4C4"/>
<rect x="14" y="34" width="40" height="1" fill="#C4C4C4"/>
<rect x="14" y="41" width="30" height="1" fill="#C4C4C4"/>
<defs>
<filter id="filter0_d" x="0" y="0" width="68" height="88" filterUnits="userSpaceOnUse" color-interpolation-filters="sRGB">
<feFlood flood-opacity="0" result="BackgroundImageFix"/>
<feColorMatrix in="SourceAlpha" type="matrix" values="0 0 0 0 0 0 0 0 0 0 0 0 0 0 0 0 0 0 127 0"/>
<feOffset dy="4"/>
<feGaussianBlur stdDeviation="2"/>
<feColorMatrix type="matrix" values="0 0 0 0 0 0 0 0 0 0 0 0 0 0 0 0 0 0 0.25 0"/>
<feBlend mode="normal" in2="BackgroundImageFix" result="effect1_dropShadow"/>
<feBlend mode="normal" in="SourceGraphic" in2="effect1_dropShadow" result="shape"/>
</filter>
</defs>
</svg>
