<svg width="68" height="80" viewBox="0 0 68 80" fill="none" xmlns="http://www.w3.org/2000/svg">
<g filter="url(#filter0_d)">
<path d="M4 5C4 2.23858 6.23858 0 9 0H49L56 7L64 15V75C64 77.7614 61.7614 80 59 80H9C6.23858 80 4 77.7614 4 75V5Z" fill="white"/>
</g>
<path d="M41.7846 64.544H43.3366V69.728C43.2086 69.7707 43.022 69.8187 42.7766 69.872C42.542 69.9253 42.2646 69.9787 41.9446 70.032C41.6353 70.0853 41.294 70.128 40.9206 70.16C40.5473 70.2027 40.1686 70.224 39.7846 70.224C39.006 70.224 38.2966 70.096 37.6566 69.84C37.0166 69.584 36.4673 69.2107 36.0086 68.72C35.55 68.2293 35.1926 67.6267 34.9366 66.912C34.6913 66.1973 34.5686 65.376 34.5686 64.448C34.5686 63.52 34.7073 62.6987 34.9846 61.984C35.2726 61.2587 35.6566 60.6507 36.1366 60.16C36.6166 59.6693 37.1766 59.296 37.8166 59.04C38.4673 58.784 39.1606 58.656 39.8966 58.656C40.398 58.656 40.8406 58.688 41.2246 58.752C41.6193 58.816 41.9553 58.8907 42.2326 58.976C42.51 59.0613 42.734 59.1467 42.9046 59.232C43.086 59.3173 43.2086 59.3813 43.2726 59.424L42.7766 60.72C42.4673 60.5173 42.0566 60.352 41.5446 60.224C41.0326 60.0853 40.51 60.016 39.9766 60.016C39.4113 60.016 38.894 60.1173 38.4246 60.32C37.966 60.5227 37.5713 60.816 37.2406 61.2C36.9206 61.584 36.67 62.0533 36.4886 62.608C36.3073 63.152 36.2166 63.7653 36.2166 64.448C36.2166 65.1093 36.2913 65.712 36.4406 66.256C36.6006 66.8 36.8353 67.2693 37.1446 67.664C37.4646 68.048 37.854 68.3467 38.3126 68.56C38.782 68.7733 39.3313 68.88 39.9606 68.88C40.4086 68.88 40.7873 68.8587 41.0966 68.816C41.4166 68.7627 41.646 68.7147 41.7846 68.672V64.544ZM53.1746 70C52.9933 69.52 52.8226 69.0507 52.6626 68.592C52.5026 68.1227 52.3373 67.648 52.1666 67.168H47.1426L46.1346 70H44.5186C44.9453 68.8267 45.3453 67.744 45.7186 66.752C46.092 65.7493 46.4546 64.8 46.8066 63.904C47.1693 63.008 47.5266 62.1547 47.8786 61.344C48.2306 60.5227 48.5986 59.712 48.9826 58.912H50.4066C50.7906 59.712 51.1586 60.5227 51.5106 61.344C51.8626 62.1547 52.2146 63.008 52.5666 63.904C52.9293 64.8 53.2973 65.7493 53.6706 66.752C54.044 67.744 54.444 68.8267 54.8706 70H53.1746ZM51.7186 65.888C51.3773 64.96 51.036 64.064 50.6946 63.2C50.364 62.3253 50.0173 61.488 49.6546 60.688C49.2813 61.488 48.924 62.3253 48.5826 63.2C48.252 64.064 47.9213 64.96 47.5906 65.888H51.7186Z" fill="black"/>
<path d="M64 15L49 0V15H64Z" fill="#C4C4C4"/>
<rect x="14" y="27" width="40" height="1" fill="#C4C4C4"/>
<rect x="14" y="34" width="40" height="1" fill="#C4C4C4"/>
<rect x="14" y="41" width="30" height="1" fill="#C4C4C4"/>
<defs>
<filter id="filter0_d" x="0" y="0" width="68" height="88" filterUnits="userSpaceOnUse" color-interpolation-filters="sRGB">
<feFlood flood-opacity="0" result="BackgroundImageFix"/>
<feColorMatrix in="SourceAlpha" type="matrix" values="0 0 0 0 0 0 0 0 0 0 0 0 0 0 0 0 0 0 127 0"/>
<feOffset dy="4"/>
<feGaussianBlur stdDeviation="2"/>
<feColorMatrix type="matrix" values="0 0 0 0 0 0 0 0 0 0 0 0 0 0 0 0 0 0 0.25 0"/>
<feBlend mode="normal" in2="BackgroundImageFix" result="effect1_dropShadow"/>
<feBlend mode="normal" in="SourceGraphic" in2="effect1_dropShadow" result="shape"/>
</filter>
</defs>
</svg>
