<svg width="288" height="350" viewBox="0 0 288 350" fill="none" xmlns="http://www.w3.org/2000/svg">
<g filter="url(#filter0_f)">
<path d="M62 305H155.783C164.594 305 171.736 297.795 171.736 288.908V234.092C171.736 225.205 178.879 218 187.689 218H283" stroke="#00E2E2" stroke-width="5"/>
</g>
<g filter="url(#filter1_d)">
<path d="M62 305H155.783C164.594 305 171.736 297.795 171.736 288.908V234.092C171.736 225.205 178.879 218 187.689 218H283" stroke="#00E2E2" stroke-width="5"/>
</g>
<g filter="url(#filter2_f)">
<path d="M62 218H137.205C146.075 218 153.266 209.404 153.266 198.8C153.266 188.196 153.266 202.804 153.266 192.2C153.266 181.596 160.458 173 169.328 173H247" stroke="#00E2E2" stroke-width="5"/>
</g>
<g filter="url(#filter3_d)">
<path d="M62 218H137.205C146.075 218 153.266 209.404 153.266 198.8C153.266 188.196 153.266 202.804 153.266 192.2C153.266 181.596 160.458 173 169.328 173H247" stroke="#00E2E2" stroke-width="5"/>
</g>
<g filter="url(#filter4_f)">
<path d="M62 41H155.783C164.594 41 171.736 48.2049 171.736 57.0925V111.908C171.736 120.795 178.879 128 187.689 128H283" stroke="#00E2E2" stroke-width="5"/>
</g>
<g filter="url(#filter5_d)">
<path d="M62 41H155.783C164.594 41 171.736 48.2049 171.736 57.0925V111.908C171.736 120.795 178.879 128 187.689 128H283" stroke="#00E2E2" stroke-width="5"/>
</g>
<g filter="url(#filter6_f)">
<path d="M62 128H137.205C146.075 128 153.266 136.596 153.266 147.2C153.266 157.804 153.266 143.196 153.266 153.8C153.266 164.404 160.458 173 169.328 173H247" stroke="#00E2E2" stroke-width="5"/>
</g>
<g filter="url(#filter7_d)">
<path d="M62 128H137.205C146.075 128 153.266 136.596 153.266 147.2C153.266 157.804 153.266 143.196 153.266 153.8C153.266 164.404 160.458 173 169.328 173H247" stroke="#00E2E2" stroke-width="5"/>
</g>
<g filter="url(#filter8_d)">
<path d="M4 5C4 2.23858 6.23858 0 9 0H49L56 7L64 15V75C64 77.7614 61.7614 80 59 80H9C6.23858 80 4 77.7614 4 75V5Z" fill="white"/>
</g>
<path d="M35.907 70C35.747 69.68 35.555 69.328 35.331 68.944C35.107 68.5493 34.8617 68.144 34.595 67.728C34.3283 67.3013 34.051 66.88 33.763 66.464C33.475 66.0373 33.1977 65.6373 32.931 65.264C32.6643 65.6373 32.387 66.0373 32.099 66.464C31.811 66.88 31.5337 67.3013 31.267 67.728C31.011 68.144 30.7657 68.5493 30.531 68.944C30.307 69.328 30.115 69.68 29.955 70H28.243C28.723 69.0613 29.2777 68.1067 29.907 67.136C30.547 66.1653 31.2243 65.168 31.939 64.144L28.387 58.912H30.179L32.915 63.04L35.619 58.912H37.395L33.907 64.08C34.6323 65.1147 35.315 66.1227 35.955 67.104C36.595 68.0853 37.1603 69.0507 37.651 70H35.907ZM46.0168 68.656V70H39.3448V58.912H40.8968V68.656H46.0168ZM50.4364 68.896C52.0577 68.896 52.8684 68.3413 52.8684 67.232C52.8684 66.8907 52.7937 66.6027 52.6444 66.368C52.5057 66.1227 52.3137 65.9147 52.0684 65.744C51.823 65.5627 51.5404 65.408 51.2204 65.28C50.911 65.152 50.5804 65.024 50.2284 64.896C49.823 64.7573 49.439 64.6027 49.0764 64.432C48.7137 64.2507 48.399 64.0427 48.1324 63.808C47.8657 63.5627 47.6524 63.2747 47.4924 62.944C47.343 62.6133 47.2684 62.2133 47.2684 61.744C47.2684 60.7733 47.599 60.016 48.2604 59.472C48.9217 58.928 49.8337 58.656 50.9964 58.656C51.6684 58.656 52.2764 58.7307 52.8204 58.88C53.375 59.0187 53.7804 59.1733 54.0364 59.344L53.5404 60.608C53.3164 60.4693 52.9804 60.336 52.5324 60.208C52.095 60.0693 51.583 60 50.9964 60C50.6977 60 50.4204 60.032 50.1644 60.096C49.9084 60.16 49.6844 60.256 49.4924 60.384C49.3004 60.512 49.1457 60.6773 49.0284 60.88C48.9217 61.072 48.8684 61.3013 48.8684 61.568C48.8684 61.8667 48.927 62.1173 49.0444 62.32C49.1617 62.5227 49.327 62.704 49.5404 62.864C49.7537 63.0133 49.999 63.152 50.2764 63.28C50.5644 63.408 50.879 63.536 51.2204 63.664C51.7004 63.856 52.1377 64.048 52.5324 64.24C52.9377 64.432 53.2844 64.6613 53.5724 64.928C53.871 65.1947 54.1004 65.5147 54.2604 65.888C54.4204 66.2507 54.5004 66.6933 54.5004 67.216C54.5004 68.1867 54.143 68.9333 53.4284 69.456C52.7244 69.9787 51.727 70.24 50.4364 70.24C49.999 70.24 49.5937 70.208 49.2204 70.144C48.8577 70.0907 48.5324 70.0267 48.2444 69.952C47.9564 69.8667 47.7057 69.7813 47.4924 69.696C47.2897 69.6 47.1297 69.52 47.0124 69.456L47.4764 68.176C47.7217 68.3147 48.095 68.4693 48.5964 68.64C49.0977 68.8107 49.711 68.896 50.4364 68.896Z" fill="black"/>
<path d="M64 15L49 0V15H64Z" fill="#C4C4C4"/>
<rect x="14" y="27" width="40" height="1" fill="#C4C4C4"/>
<rect x="14" y="34" width="40" height="1" fill="#C4C4C4"/>
<rect x="14" y="41" width="30" height="1" fill="#C4C4C4"/>
<g filter="url(#filter9_d)">
<path d="M4 95C4 92.2386 6.23858 90 9 90H49L56 97L64 105V165C64 167.761 61.7614 170 59 170H9C6.23858 170 4 167.761 4 165V95Z" fill="white"/>
</g>
<path d="M31.6988 154.448C31.6988 155.408 31.5494 156.245 31.2508 156.96C30.9521 157.664 30.5308 158.251 29.9868 158.72C29.4428 159.179 28.7921 159.525 28.0348 159.76C27.2774 159.984 26.4454 160.096 25.5388 160.096C25.0908 160.096 24.5948 160.075 24.0508 160.032C23.5174 160 23.0321 159.931 22.5948 159.824V149.072C23.0321 148.965 23.5174 148.896 24.0508 148.864C24.5948 148.821 25.0908 148.8 25.5388 148.8C26.4454 148.8 27.2774 148.917 28.0348 149.152C28.7921 149.376 29.4428 149.723 29.9868 150.192C30.5308 150.651 30.9521 151.237 31.2508 151.952C31.5494 152.656 31.6988 153.488 31.6988 154.448ZM25.6668 158.736C27.1388 158.736 28.2374 158.363 28.9628 157.616C29.6881 156.859 30.0508 155.803 30.0508 154.448C30.0508 153.093 29.6881 152.043 28.9628 151.296C28.2374 150.539 27.1388 150.16 25.6668 150.16C25.2294 150.16 24.8881 150.165 24.6428 150.176C24.4081 150.187 24.2428 150.197 24.1468 150.208V158.688C24.2428 158.699 24.4081 158.709 24.6428 158.72C24.8881 158.731 25.2294 158.736 25.6668 158.736ZM33.553 154.448C33.553 153.499 33.6917 152.661 33.969 151.936C34.257 151.211 34.641 150.608 35.121 150.128C35.6117 149.637 36.177 149.269 36.817 149.024C37.4677 148.779 38.1557 148.656 38.881 148.656C39.5957 148.656 40.2677 148.779 40.897 149.024C41.537 149.269 42.097 149.637 42.577 150.128C43.057 150.608 43.4357 151.211 43.713 151.936C44.001 152.661 44.145 153.499 44.145 154.448C44.145 155.397 44.001 156.235 43.713 156.96C43.4357 157.685 43.057 158.293 42.577 158.784C42.097 159.264 41.537 159.627 40.897 159.872C40.2677 160.117 39.5957 160.24 38.881 160.24C38.1557 160.24 37.4677 160.117 36.817 159.872C36.177 159.627 35.6117 159.264 35.121 158.784C34.641 158.293 34.257 157.685 33.969 156.96C33.6917 156.235 33.553 155.397 33.553 154.448ZM35.185 154.448C35.185 155.12 35.2703 155.733 35.441 156.288C35.6117 156.832 35.8517 157.296 36.161 157.68C36.481 158.064 36.865 158.363 37.313 158.576C37.7717 158.779 38.2837 158.88 38.849 158.88C39.4143 158.88 39.921 158.779 40.369 158.576C40.817 158.363 41.1957 158.064 41.505 157.68C41.825 157.296 42.0703 156.832 42.241 156.288C42.4117 155.733 42.497 155.12 42.497 154.448C42.497 153.776 42.4117 153.168 42.241 152.624C42.0703 152.069 41.825 151.6 41.505 151.216C41.1957 150.832 40.817 150.539 40.369 150.336C39.921 150.123 39.4143 150.016 38.849 150.016C38.2837 150.016 37.7717 150.123 37.313 150.336C36.865 150.539 36.481 150.832 36.161 151.216C35.8517 151.6 35.6117 152.069 35.441 152.624C35.2703 153.168 35.185 153.776 35.185 154.448ZM51.2221 160.24C50.4435 160.24 49.7341 160.112 49.0941 159.856C48.4541 159.6 47.9048 159.227 47.4461 158.736C46.9875 158.245 46.6301 157.643 46.3741 156.928C46.1288 156.203 46.0061 155.376 46.0061 154.448C46.0061 153.52 46.1448 152.699 46.4221 151.984C46.7101 151.259 47.0941 150.651 47.5741 150.16C48.0541 149.669 48.6141 149.296 49.2541 149.04C49.8941 148.784 50.5768 148.656 51.3021 148.656C51.7608 148.656 52.1715 148.688 52.5341 148.752C52.9075 148.816 53.2275 148.891 53.4941 148.976C53.7715 149.061 53.9955 149.147 54.1661 149.232C54.3368 149.317 54.4541 149.381 54.5181 149.424L54.0701 150.704C53.9741 150.64 53.8355 150.571 53.6541 150.496C53.4728 150.421 53.2648 150.347 53.0301 150.272C52.8061 150.197 52.5555 150.139 52.2781 150.096C52.0115 150.043 51.7395 150.016 51.4621 150.016C50.8755 150.016 50.3475 150.117 49.8781 150.32C49.4088 150.523 49.0088 150.816 48.6781 151.2C48.3475 151.584 48.0915 152.053 47.9101 152.608C47.7395 153.152 47.6541 153.765 47.6541 154.448C47.6541 155.109 47.7288 155.712 47.8781 156.256C48.0381 156.8 48.2728 157.269 48.5821 157.664C48.8915 158.048 49.2755 158.347 49.7341 158.56C50.2035 158.773 50.7475 158.88 51.3661 158.88C52.0808 158.88 52.6728 158.805 53.1421 158.656C53.6115 158.507 53.9635 158.373 54.1981 158.256L54.5981 159.536C54.5235 159.589 54.3901 159.659 54.1981 159.744C54.0061 159.819 53.7661 159.893 53.4781 159.968C53.1901 160.043 52.8541 160.107 52.4701 160.16C52.0861 160.213 51.6701 160.24 51.2221 160.24Z" fill="black"/>
<path d="M64 105L49 90V105H64Z" fill="#C4C4C4"/>
<rect x="14" y="117" width="40" height="1" fill="#C4C4C4"/>
<rect x="14" y="124" width="40" height="1" fill="#C4C4C4"/>
<rect x="14" y="131" width="30" height="1" fill="#C4C4C4"/>
<g filter="url(#filter10_d)">
<path d="M4 185C4 182.239 6.23858 180 9 180H49L56 187L64 195V255C64 257.761 61.7614 260 59 260H9C6.23858 260 4 257.761 4 255V185Z" fill="white"/>
</g>
<path d="M30.7039 250C30.5439 249.68 30.3519 249.328 30.1279 248.944C29.9039 248.549 29.6585 248.144 29.3919 247.728C29.1252 247.301 28.8479 246.88 28.5599 246.464C28.2719 246.037 27.9945 245.637 27.7279 245.264C27.4612 245.637 27.1839 246.037 26.8959 246.464C26.6079 246.88 26.3305 247.301 26.0639 247.728C25.8079 248.144 25.5625 248.549 25.3279 248.944C25.1039 249.328 24.9119 249.68 24.7519 250H23.0399C23.5199 249.061 24.0745 248.107 24.7039 247.136C25.3439 246.165 26.0212 245.168 26.7359 244.144L23.1839 238.912H24.9759L27.7119 243.04L30.4159 238.912H32.1919L28.7039 244.08C29.4292 245.115 30.1119 246.123 30.7519 247.104C31.3919 248.085 31.9572 249.051 32.4479 250H30.7039ZM39.1176 248.464C39.011 248.208 38.867 247.883 38.6856 247.488C38.515 247.093 38.3283 246.667 38.1256 246.208C37.923 245.749 37.7043 245.28 37.4696 244.8C37.2456 244.309 37.0323 243.851 36.8296 243.424C36.627 242.987 36.435 242.597 36.2536 242.256C36.083 241.915 35.9443 241.653 35.8376 241.472C35.7203 242.731 35.6243 244.096 35.5496 245.568C35.475 247.029 35.411 248.507 35.3576 250H33.8376C33.8803 249.04 33.9283 248.075 33.9816 247.104C34.035 246.123 34.0936 245.163 34.1576 244.224C34.2323 243.275 34.307 242.352 34.3816 241.456C34.467 240.56 34.5576 239.712 34.6536 238.912H36.0136C36.3016 239.381 36.611 239.936 36.9416 240.576C37.2723 241.216 37.603 241.888 37.9336 242.592C38.2643 243.285 38.5843 243.984 38.8936 244.688C39.203 245.381 39.4856 246.016 39.7416 246.592C39.9976 246.016 40.2803 245.381 40.5896 244.688C40.899 243.984 41.219 243.285 41.5496 242.592C41.8803 241.888 42.211 241.216 42.5416 240.576C42.8723 239.936 43.1816 239.381 43.4696 238.912H44.8296C45.1923 242.485 45.4643 246.181 45.6456 250H44.1256C44.0723 248.507 44.0083 247.029 43.9336 245.568C43.859 244.096 43.763 242.731 43.6456 241.472C43.539 241.653 43.395 241.915 43.2136 242.256C43.043 242.597 42.8563 242.987 42.6536 243.424C42.451 243.851 42.2323 244.309 41.9976 244.8C41.7736 245.28 41.5603 245.749 41.3576 246.208C41.155 246.667 40.963 247.093 40.7816 247.488C40.611 247.883 40.4723 248.208 40.3656 248.464H39.1176ZM54.7511 248.656V250H48.0791V238.912H49.6311V248.656H54.7511Z" fill="black"/>
<path d="M64 195L49 180V195H64Z" fill="#C4C4C4"/>
<rect x="14" y="207" width="40" height="1" fill="#C4C4C4"/>
<rect x="14" y="214" width="40" height="1" fill="#C4C4C4"/>
<rect x="14" y="221" width="30" height="1" fill="#C4C4C4"/>
<g filter="url(#filter11_d)">
<path d="M4 275C4 272.239 6.23858 270 9 270H49L56 277L64 285V345C64 347.761 61.7614 350 59 350H9C6.23858 350 4 347.761 4 345V275Z" fill="white"/>
</g>
<path d="M41.7846 334.544H43.3366V339.728C43.2086 339.771 43.022 339.819 42.7766 339.872C42.542 339.925 42.2646 339.979 41.9446 340.032C41.6353 340.085 41.294 340.128 40.9206 340.16C40.5473 340.203 40.1686 340.224 39.7846 340.224C39.006 340.224 38.2966 340.096 37.6566 339.84C37.0166 339.584 36.4673 339.211 36.0086 338.72C35.55 338.229 35.1926 337.627 34.9366 336.912C34.6913 336.197 34.5686 335.376 34.5686 334.448C34.5686 333.52 34.7073 332.699 34.9846 331.984C35.2726 331.259 35.6566 330.651 36.1366 330.16C36.6166 329.669 37.1766 329.296 37.8166 329.04C38.4673 328.784 39.1606 328.656 39.8966 328.656C40.398 328.656 40.8406 328.688 41.2246 328.752C41.6193 328.816 41.9553 328.891 42.2326 328.976C42.51 329.061 42.734 329.147 42.9046 329.232C43.086 329.317 43.2086 329.381 43.2726 329.424L42.7766 330.72C42.4673 330.517 42.0566 330.352 41.5446 330.224C41.0326 330.085 40.51 330.016 39.9766 330.016C39.4113 330.016 38.894 330.117 38.4246 330.32C37.966 330.523 37.5713 330.816 37.2406 331.2C36.9206 331.584 36.67 332.053 36.4886 332.608C36.3073 333.152 36.2166 333.765 36.2166 334.448C36.2166 335.109 36.2913 335.712 36.4406 336.256C36.6006 336.8 36.8353 337.269 37.1446 337.664C37.4646 338.048 37.854 338.347 38.3126 338.56C38.782 338.773 39.3313 338.88 39.9606 338.88C40.4086 338.88 40.7873 338.859 41.0966 338.816C41.4166 338.763 41.646 338.715 41.7846 338.672V334.544ZM53.1746 340C52.9933 339.52 52.8226 339.051 52.6626 338.592C52.5026 338.123 52.3373 337.648 52.1666 337.168H47.1426L46.1346 340H44.5186C44.9453 338.827 45.3453 337.744 45.7186 336.752C46.092 335.749 46.4546 334.8 46.8066 333.904C47.1693 333.008 47.5266 332.155 47.8786 331.344C48.2306 330.523 48.5986 329.712 48.9826 328.912H50.4066C50.7906 329.712 51.1586 330.523 51.5106 331.344C51.8626 332.155 52.2146 333.008 52.5666 333.904C52.9293 334.8 53.2973 335.749 53.6706 336.752C54.044 337.744 54.444 338.827 54.8706 340H53.1746ZM51.7186 335.888C51.3773 334.96 51.036 334.064 50.6946 333.2C50.364 332.325 50.0173 331.488 49.6546 330.688C49.2813 331.488 48.924 332.325 48.5826 333.2C48.252 334.064 47.9213 334.96 47.5906 335.888H51.7186Z" fill="black"/>
<path d="M64 285L49 270V285H64Z" fill="#C4C4C4"/>
<rect x="14" y="297" width="40" height="1" fill="#C4C4C4"/>
<rect x="14" y="304" width="40" height="1" fill="#C4C4C4"/>
<rect x="14" y="311" width="30" height="1" fill="#C4C4C4"/>
<defs>
<filter id="filter0_f" x="57" y="210.5" width="231" height="102" filterUnits="userSpaceOnUse" color-interpolation-filters="sRGB">
<feFlood flood-opacity="0" result="BackgroundImageFix"/>
<feBlend mode="normal" in="SourceGraphic" in2="BackgroundImageFix" result="shape"/>
<feGaussianBlur stdDeviation="2.5" result="effect1_foregroundBlur"/>
</filter>
<filter id="filter1_d" x="58" y="215.5" width="229" height="100" filterUnits="userSpaceOnUse" color-interpolation-filters="sRGB">
<feFlood flood-opacity="0" result="BackgroundImageFix"/>
<feColorMatrix in="SourceAlpha" type="matrix" values="0 0 0 0 0 0 0 0 0 0 0 0 0 0 0 0 0 0 127 0"/>
<feOffset dy="4"/>
<feGaussianBlur stdDeviation="2"/>
<feColorMatrix type="matrix" values="0 0 0 0 0 0 0 0 0 0 0 0 0 0 0 0 0 0 0.25 0"/>
<feBlend mode="normal" in2="BackgroundImageFix" result="effect1_dropShadow"/>
<feBlend mode="normal" in="SourceGraphic" in2="effect1_dropShadow" result="shape"/>
</filter>
<filter id="filter2_f" x="57" y="165.5" width="195" height="60" filterUnits="userSpaceOnUse" color-interpolation-filters="sRGB">
<feFlood flood-opacity="0" result="BackgroundImageFix"/>
<feBlend mode="normal" in="SourceGraphic" in2="BackgroundImageFix" result="shape"/>
<feGaussianBlur stdDeviation="2.5" result="effect1_foregroundBlur"/>
</filter>
<filter id="filter3_d" x="58" y="170.5" width="193" height="58" filterUnits="userSpaceOnUse" color-interpolation-filters="sRGB">
<feFlood flood-opacity="0" result="BackgroundImageFix"/>
<feColorMatrix in="SourceAlpha" type="matrix" values="0 0 0 0 0 0 0 0 0 0 0 0 0 0 0 0 0 0 127 0"/>
<feOffset dy="4"/>
<feGaussianBlur stdDeviation="2"/>
<feColorMatrix type="matrix" values="0 0 0 0 0 0 0 0 0 0 0 0 0 0 0 0 0 0 0.25 0"/>
<feBlend mode="normal" in2="BackgroundImageFix" result="effect1_dropShadow"/>
<feBlend mode="normal" in="SourceGraphic" in2="effect1_dropShadow" result="shape"/>
</filter>
<filter id="filter4_f" x="57" y="33.5" width="231" height="102" filterUnits="userSpaceOnUse" color-interpolation-filters="sRGB">
<feFlood flood-opacity="0" result="BackgroundImageFix"/>
<feBlend mode="normal" in="SourceGraphic" in2="BackgroundImageFix" result="shape"/>
<feGaussianBlur stdDeviation="2.5" result="effect1_foregroundBlur"/>
</filter>
<filter id="filter5_d" x="58" y="38.5" width="229" height="100" filterUnits="userSpaceOnUse" color-interpolation-filters="sRGB">
<feFlood flood-opacity="0" result="BackgroundImageFix"/>
<feColorMatrix in="SourceAlpha" type="matrix" values="0 0 0 0 0 0 0 0 0 0 0 0 0 0 0 0 0 0 127 0"/>
<feOffset dy="4"/>
<feGaussianBlur stdDeviation="2"/>
<feColorMatrix type="matrix" values="0 0 0 0 0 0 0 0 0 0 0 0 0 0 0 0 0 0 0.25 0"/>
<feBlend mode="normal" in2="BackgroundImageFix" result="effect1_dropShadow"/>
<feBlend mode="normal" in="SourceGraphic" in2="effect1_dropShadow" result="shape"/>
</filter>
<filter id="filter6_f" x="57" y="120.5" width="195" height="60" filterUnits="userSpaceOnUse" color-interpolation-filters="sRGB">
<feFlood flood-opacity="0" result="BackgroundImageFix"/>
<feBlend mode="normal" in="SourceGraphic" in2="BackgroundImageFix" result="shape"/>
<feGaussianBlur stdDeviation="2.5" result="effect1_foregroundBlur"/>
</filter>
<filter id="filter7_d" x="58" y="125.5" width="193" height="58" filterUnits="userSpaceOnUse" color-interpolation-filters="sRGB">
<feFlood flood-opacity="0" result="BackgroundImageFix"/>
<feColorMatrix in="SourceAlpha" type="matrix" values="0 0 0 0 0 0 0 0 0 0 0 0 0 0 0 0 0 0 127 0"/>
<feOffset dy="4"/>
<feGaussianBlur stdDeviation="2"/>
<feColorMatrix type="matrix" values="0 0 0 0 0 0 0 0 0 0 0 0 0 0 0 0 0 0 0.25 0"/>
<feBlend mode="normal" in2="BackgroundImageFix" result="effect1_dropShadow"/>
<feBlend mode="normal" in="SourceGraphic" in2="effect1_dropShadow" result="shape"/>
</filter>
<filter id="filter8_d" x="0" y="0" width="68" height="88" filterUnits="userSpaceOnUse" color-interpolation-filters="sRGB">
<feFlood flood-opacity="0" result="BackgroundImageFix"/>
<feColorMatrix in="SourceAlpha" type="matrix" values="0 0 0 0 0 0 0 0 0 0 0 0 0 0 0 0 0 0 127 0"/>
<feOffset dy="4"/>
<feGaussianBlur stdDeviation="2"/>
<feColorMatrix type="matrix" values="0 0 0 0 0 0 0 0 0 0 0 0 0 0 0 0 0 0 0.25 0"/>
<feBlend mode="normal" in2="BackgroundImageFix" result="effect1_dropShadow"/>
<feBlend mode="normal" in="SourceGraphic" in2="effect1_dropShadow" result="shape"/>
</filter>
<filter id="filter9_d" x="0" y="90" width="68" height="88" filterUnits="userSpaceOnUse" color-interpolation-filters="sRGB">
<feFlood flood-opacity="0" result="BackgroundImageFix"/>
<feColorMatrix in="SourceAlpha" type="matrix" values="0 0 0 0 0 0 0 0 0 0 0 0 0 0 0 0 0 0 127 0"/>
<feOffset dy="4"/>
<feGaussianBlur stdDeviation="2"/>
<feColorMatrix type="matrix" values="0 0 0 0 0 0 0 0 0 0 0 0 0 0 0 0 0 0 0.25 0"/>
<feBlend mode="normal" in2="BackgroundImageFix" result="effect1_dropShadow"/>
<feBlend mode="normal" in="SourceGraphic" in2="effect1_dropShadow" result="shape"/>
</filter>
<filter id="filter10_d" x="0" y="180" width="68" height="88" filterUnits="userSpaceOnUse" color-interpolation-filters="sRGB">
<feFlood flood-opacity="0" result="BackgroundImageFix"/>
<feColorMatrix in="SourceAlpha" type="matrix" values="0 0 0 0 0 0 0 0 0 0 0 0 0 0 0 0 0 0 127 0"/>
<feOffset dy="4"/>
<feGaussianBlur stdDeviation="2"/>
<feColorMatrix type="matrix" values="0 0 0 0 0 0 0 0 0 0 0 0 0 0 0 0 0 0 0.25 0"/>
<feBlend mode="normal" in2="BackgroundImageFix" result="effect1_dropShadow"/>
<feBlend mode="normal" in="SourceGraphic" in2="effect1_dropShadow" result="shape"/>
</filter>
<filter id="filter11_d" x="0" y="270" width="68" height="88" filterUnits="userSpaceOnUse" color-interpolation-filters="sRGB">
<feFlood flood-opacity="0" result="BackgroundImageFix"/>
<feColorMatrix in="SourceAlpha" type="matrix" values="0 0 0 0 0 0 0 0 0 0 0 0 0 0 0 0 0 0 127 0"/>
<feOffset dy="4"/>
<feGaussianBlur stdDeviation="2"/>
<feColorMatrix type="matrix" values="0 0 0 0 0 0 0 0 0 0 0 0 0 0 0 0 0 0 0.25 0"/>
<feBlend mode="normal" in2="BackgroundImageFix" result="effect1_dropShadow"/>
<feBlend mode="normal" in="SourceGraphic" in2="effect1_dropShadow" result="shape"/>
</filter>
</defs>
</svg>
