<svg width="160" height="160" viewBox="0 0 160 160" fill="none" xmlns="http://www.w3.org/2000/svg">
<g filter="url(#filter0_d)">
<path d="M78.3503 2.40718C79.1447 1.24803 80.8553 1.24803 81.6497 2.40717L107.812 40.5805C108.072 40.96 108.455 41.2382 108.896 41.3683L153.285 54.4535C154.633 54.8508 155.162 56.4778 154.305 57.5915L126.084 94.2692C125.804 94.6338 125.658 95.0839 125.67 95.5437L126.943 141.804C126.981 143.209 125.597 144.214 124.273 143.744L80.6701 128.238C80.2367 128.084 79.7633 128.084 79.3299 128.238L35.7268 143.744C34.4027 144.214 33.0188 143.209 33.0574 141.804L34.3297 95.5437C34.3424 95.0839 34.1961 94.6337 33.9156 94.2691L5.69504 57.5915C4.83812 56.4778 5.36674 54.8508 6.71464 54.4535L51.1041 41.3683C51.5454 41.2382 51.9283 40.96 52.1884 40.5805L78.3503 2.40718Z" fill="url(#paint0_linear)"/>
</g>
<path d="M81.5069 74.472C81.5069 71.472 79.2509 70.008 76.5149 70.008H69.9869V87H76.4909C79.7549 87 82.2269 85.728 82.2989 82.128C82.2989 80.256 81.7229 78.744 80.0909 77.904C81.0989 77.064 81.5069 75.816 81.5069 74.472ZM72.0029 76.992V72.024H76.5149C78.1709 72.024 79.5389 72.624 79.5389 74.472C79.5389 76.32 78.2429 76.992 76.5149 76.992H72.0029ZM72.0029 84.984V79.008H76.5149C78.8189 78.984 80.2829 79.776 80.2829 82.104C80.2829 84.408 78.6989 85.032 76.5149 84.984H72.0029ZM89.0024 70.008H87.0104V87H89.0024V70.008Z" fill="white"/>
<defs>
<filter id="filter0_d" x="1.2793" y="1.53784" width="157.442" height="150.323" filterUnits="userSpaceOnUse" color-interpolation-filters="sRGB">
<feFlood flood-opacity="0" result="BackgroundImageFix"/>
<feColorMatrix in="SourceAlpha" type="matrix" values="0 0 0 0 0 0 0 0 0 0 0 0 0 0 0 0 0 0 127 0"/>
<feOffset dy="4"/>
<feGaussianBlur stdDeviation="2"/>
<feColorMatrix type="matrix" values="0 0 0 0 0 0 0 0 0 0 0 0 0 0 0 0 0 0 0.25 0"/>
<feBlend mode="normal" in2="BackgroundImageFix" result="effect1_dropShadow"/>
<feBlend mode="normal" in="SourceGraphic" in2="effect1_dropShadow" result="shape"/>
</filter>
<linearGradient id="paint0_linear" x1="27.5" y1="12.5" x2="135" y2="160" gradientUnits="userSpaceOnUse">
<stop offset="0.179786" stop-color="#00FFB4"/>
<stop offset="0.985133" stop-color="#0C7584"/>
</linearGradient>
</defs>
</svg>
