<svg width="68" height="88" viewBox="0 0 68 88" fill="none" xmlns="http://www.w3.org/2000/svg">
<g filter="url(#filter0_d)">
<path d="M4 5C4 2.23858 6.23858 0 9 0H49L56 7L64 15V75C64 77.7614 61.7614 80 59 80H9C6.23858 80 4 77.7614 4 75V5Z" fill="white"/>
</g>
<path d="M35.907 70C35.747 69.68 35.555 69.328 35.331 68.944C35.107 68.5493 34.8617 68.144 34.595 67.728C34.3283 67.3013 34.051 66.88 33.763 66.464C33.475 66.0373 33.1977 65.6373 32.931 65.264C32.6643 65.6373 32.387 66.0373 32.099 66.464C31.811 66.88 31.5337 67.3013 31.267 67.728C31.011 68.144 30.7657 68.5493 30.531 68.944C30.307 69.328 30.115 69.68 29.955 70H28.243C28.723 69.0613 29.2777 68.1067 29.907 67.136C30.547 66.1653 31.2243 65.168 31.939 64.144L28.387 58.912H30.179L32.915 63.04L35.619 58.912H37.395L33.907 64.08C34.6323 65.1147 35.315 66.1227 35.955 67.104C36.595 68.0853 37.1603 69.0507 37.651 70H35.907ZM46.0168 68.656V70H39.3448V58.912H40.8968V68.656H46.0168ZM50.4364 68.896C52.0577 68.896 52.8684 68.3413 52.8684 67.232C52.8684 66.8907 52.7937 66.6027 52.6444 66.368C52.5057 66.1227 52.3137 65.9147 52.0684 65.744C51.823 65.5627 51.5404 65.408 51.2204 65.28C50.911 65.152 50.5804 65.024 50.2284 64.896C49.823 64.7573 49.439 64.6027 49.0764 64.432C48.7137 64.2507 48.399 64.0427 48.1324 63.808C47.8657 63.5627 47.6524 63.2747 47.4924 62.944C47.343 62.6133 47.2684 62.2133 47.2684 61.744C47.2684 60.7733 47.599 60.016 48.2604 59.472C48.9217 58.928 49.8337 58.656 50.9964 58.656C51.6684 58.656 52.2764 58.7307 52.8204 58.88C53.375 59.0187 53.7804 59.1733 54.0364 59.344L53.5404 60.608C53.3164 60.4693 52.9804 60.336 52.5324 60.208C52.095 60.0693 51.583 60 50.9964 60C50.6977 60 50.4204 60.032 50.1644 60.096C49.9084 60.16 49.6844 60.256 49.4924 60.384C49.3004 60.512 49.1457 60.6773 49.0284 60.88C48.9217 61.072 48.8684 61.3013 48.8684 61.568C48.8684 61.8667 48.927 62.1173 49.0444 62.32C49.1617 62.5227 49.327 62.704 49.5404 62.864C49.7537 63.0133 49.999 63.152 50.2764 63.28C50.5644 63.408 50.879 63.536 51.2204 63.664C51.7004 63.856 52.1377 64.048 52.5324 64.24C52.9377 64.432 53.2844 64.6613 53.5724 64.928C53.871 65.1947 54.1004 65.5147 54.2604 65.888C54.4204 66.2507 54.5004 66.6933 54.5004 67.216C54.5004 68.1867 54.143 68.9333 53.4284 69.456C52.7244 69.9787 51.727 70.24 50.4364 70.24C49.999 70.24 49.5937 70.208 49.2204 70.144C48.8577 70.0907 48.5324 70.0267 48.2444 69.952C47.9564 69.8667 47.7057 69.7813 47.4924 69.696C47.2897 69.6 47.1297 69.52 47.0124 69.456L47.4764 68.176C47.7217 68.3147 48.095 68.4693 48.5964 68.64C49.0977 68.8107 49.711 68.896 50.4364 68.896Z" fill="black"/>
<path d="M64 15L49 0V15H64Z" fill="#C4C4C4"/>
<rect x="14" y="27" width="40" height="1" fill="#C4C4C4"/>
<rect x="14" y="34" width="40" height="1" fill="#C4C4C4"/>
<rect x="14" y="41" width="30" height="1" fill="#C4C4C4"/>
<defs>
<filter id="filter0_d" x="0" y="0" width="68" height="88" filterUnits="userSpaceOnUse" color-interpolation-filters="sRGB">
<feFlood flood-opacity="0" result="BackgroundImageFix"/>
<feColorMatrix in="SourceAlpha" type="matrix" values="0 0 0 0 0 0 0 0 0 0 0 0 0 0 0 0 0 0 127 0"/>
<feOffset dy="4"/>
<feGaussianBlur stdDeviation="2"/>
<feColorMatrix type="matrix" values="0 0 0 0 0 0 0 0 0 0 0 0 0 0 0 0 0 0 0.25 0"/>
<feBlend mode="normal" in2="BackgroundImageFix" result="effect1_dropShadow"/>
<feBlend mode="normal" in="SourceGraphic" in2="effect1_dropShadow" result="shape"/>
</filter>
</defs>
</svg>
