<svg width="68" height="80" viewBox="0 0 68 80" fill="none" xmlns="http://www.w3.org/2000/svg">
<g filter="url(#filter0_d)">
<path d="M4 5C4 2.23858 6.23858 0 9 0H49L56 7L64 15V75C64 77.7614 61.7614 80 59 80H9C6.23858 80 4 77.7614 4 75V5Z" fill="white"/>
</g>
<path d="M30.7039 70C30.5439 69.68 30.3519 69.328 30.1279 68.944C29.9039 68.5493 29.6585 68.144 29.3919 67.728C29.1252 67.3013 28.8479 66.88 28.5599 66.464C28.2719 66.0373 27.9945 65.6373 27.7279 65.264C27.4612 65.6373 27.1839 66.0373 26.8959 66.464C26.6079 66.88 26.3305 67.3013 26.0639 67.728C25.8079 68.144 25.5625 68.5493 25.3279 68.944C25.1039 69.328 24.9119 69.68 24.7519 70H23.0399C23.5199 69.0613 24.0745 68.1067 24.7039 67.136C25.3439 66.1653 26.0212 65.168 26.7359 64.144L23.1839 58.912H24.9759L27.7119 63.04L30.4159 58.912H32.1919L28.7039 64.08C29.4292 65.1147 30.1119 66.1227 30.7519 67.104C31.3919 68.0853 31.9572 69.0507 32.4479 70H30.7039ZM39.1176 68.464C39.011 68.208 38.867 67.8827 38.6856 67.488C38.515 67.0933 38.3283 66.6667 38.1256 66.208C37.923 65.7493 37.7043 65.28 37.4696 64.8C37.2456 64.3093 37.0323 63.8507 36.8296 63.424C36.627 62.9867 36.435 62.5973 36.2536 62.256C36.083 61.9147 35.9443 61.6533 35.8376 61.472C35.7203 62.7307 35.6243 64.096 35.5496 65.568C35.475 67.0293 35.411 68.5067 35.3576 70H33.8376C33.8803 69.04 33.9283 68.0747 33.9816 67.104C34.035 66.1227 34.0936 65.1627 34.1576 64.224C34.2323 63.2747 34.307 62.352 34.3816 61.456C34.467 60.56 34.5576 59.712 34.6536 58.912H36.0136C36.3016 59.3813 36.611 59.936 36.9416 60.576C37.2723 61.216 37.603 61.888 37.9336 62.592C38.2643 63.2853 38.5843 63.984 38.8936 64.688C39.203 65.3813 39.4856 66.016 39.7416 66.592C39.9976 66.016 40.2803 65.3813 40.5896 64.688C40.899 63.984 41.219 63.2853 41.5496 62.592C41.8803 61.888 42.211 61.216 42.5416 60.576C42.8723 59.936 43.1816 59.3813 43.4696 58.912H44.8296C45.1923 62.4853 45.4643 66.1813 45.6456 70H44.1256C44.0723 68.5067 44.0083 67.0293 43.9336 65.568C43.859 64.096 43.763 62.7307 43.6456 61.472C43.539 61.6533 43.395 61.9147 43.2136 62.256C43.043 62.5973 42.8563 62.9867 42.6536 63.424C42.451 63.8507 42.2323 64.3093 41.9976 64.8C41.7736 65.28 41.5603 65.7493 41.3576 66.208C41.155 66.6667 40.963 67.0933 40.7816 67.488C40.611 67.8827 40.4723 68.208 40.3656 68.464H39.1176ZM54.7511 68.656V70H48.0791V58.912H49.6311V68.656H54.7511Z" fill="black"/>
<path d="M64 15L49 0V15H64Z" fill="#C4C4C4"/>
<rect x="14" y="27" width="40" height="1" fill="#C4C4C4"/>
<rect x="14" y="34" width="40" height="1" fill="#C4C4C4"/>
<rect x="14" y="41" width="30" height="1" fill="#C4C4C4"/>
<defs>
<filter id="filter0_d" x="0" y="0" width="68" height="88" filterUnits="userSpaceOnUse" color-interpolation-filters="sRGB">
<feFlood flood-opacity="0" result="BackgroundImageFix"/>
<feColorMatrix in="SourceAlpha" type="matrix" values="0 0 0 0 0 0 0 0 0 0 0 0 0 0 0 0 0 0 127 0"/>
<feOffset dy="4"/>
<feGaussianBlur stdDeviation="2"/>
<feColorMatrix type="matrix" values="0 0 0 0 0 0 0 0 0 0 0 0 0 0 0 0 0 0 0.25 0"/>
<feBlend mode="normal" in2="BackgroundImageFix" result="effect1_dropShadow"/>
<feBlend mode="normal" in="SourceGraphic" in2="effect1_dropShadow" result="shape"/>
</filter>
</defs>
</svg>
